%TF.GenerationSoftware,KiCad,Pcbnew,(6.0.9)*%
%TF.CreationDate,2022-11-14T10:50:18+01:00*%
%TF.ProjectId,latte,6c617474-652e-46b6-9963-61645f706362,rev?*%
%TF.SameCoordinates,Original*%
%TF.FileFunction,Drillmap*%
%TF.FilePolarity,Positive*%
%FSLAX45Y45*%
G04 Gerber Fmt 4.5, Leading zero omitted, Abs format (unit mm)*
G04 Created by KiCad (PCBNEW (6.0.9)) date 2022-11-14 10:50:18*
%MOMM*%
%LPD*%
G01*
G04 APERTURE LIST*
%ADD10C,0.200000*%
%ADD11C,0.065000*%
%ADD12C,0.070000*%
%ADD13C,0.320000*%
G04 APERTURE END LIST*
D10*
X15821000Y-12100000D02*
G75*
G03*
X16221000Y-11700000I0J400000D01*
G01*
X11621000Y-7100000D02*
G75*
G03*
X11221000Y-7500000I0J-400000D01*
G01*
X15821000Y-12100000D02*
X11621000Y-12100000D01*
X16221000Y-7500000D02*
X16221000Y-11700000D01*
X11221000Y-11700000D02*
G75*
G03*
X11621000Y-12100000I400000J0D01*
G01*
X11221000Y-7500000D02*
X11221000Y-11700000D01*
X16221000Y-7500000D02*
G75*
G03*
X15821000Y-7100000I-400000J0D01*
G01*
X15821000Y-7100000D02*
X11621000Y-7100000D01*
D11*
X11844000Y-8103500D02*
X11909000Y-8168500D01*
X11909000Y-8103500D02*
X11844000Y-8168500D01*
X11844000Y-8681500D02*
X11909000Y-8746500D01*
X11909000Y-8681500D02*
X11844000Y-8746500D01*
X11844000Y-10453500D02*
X11909000Y-10518500D01*
X11909000Y-10453500D02*
X11844000Y-10518500D01*
X11844000Y-11031500D02*
X11909000Y-11096500D01*
X11909000Y-11031500D02*
X11844000Y-11096500D01*
X15547000Y-10453500D02*
X15612000Y-10518500D01*
X15612000Y-10453500D02*
X15547000Y-10518500D01*
X15547000Y-11031500D02*
X15612000Y-11096500D01*
X15612000Y-11031500D02*
X15547000Y-11096500D01*
D12*
X14681000Y-11871500D02*
G75*
G03*
X14681000Y-11871500I-35000J0D01*
G01*
X14808000Y-11871500D02*
G75*
G03*
X14808000Y-11871500I-35000J0D01*
G01*
X14935000Y-11871500D02*
G75*
G03*
X14935000Y-11871500I-35000J0D01*
G01*
X15062000Y-11871500D02*
G75*
G03*
X15062000Y-11871500I-35000J0D01*
G01*
X15189000Y-11871500D02*
G75*
G03*
X15189000Y-11871500I-35000J0D01*
G01*
D13*
X13133250Y-7735000D02*
X13133250Y-8055000D01*
X12973250Y-7895000D02*
X13293250Y-7895000D01*
X14276250Y-7735000D02*
X14276250Y-8055000D01*
X14116250Y-7895000D02*
X14436250Y-7895000D01*
D10*
X11468619Y-12420476D02*
X11468619Y-12220476D01*
X11516238Y-12220476D01*
X11544809Y-12230000D01*
X11563857Y-12249048D01*
X11573381Y-12268095D01*
X11582905Y-12306190D01*
X11582905Y-12334762D01*
X11573381Y-12372857D01*
X11563857Y-12391905D01*
X11544809Y-12410952D01*
X11516238Y-12420476D01*
X11468619Y-12420476D01*
X11668619Y-12420476D02*
X11668619Y-12287143D01*
X11668619Y-12325238D02*
X11678143Y-12306190D01*
X11687667Y-12296667D01*
X11706714Y-12287143D01*
X11725762Y-12287143D01*
X11792428Y-12420476D02*
X11792428Y-12287143D01*
X11792428Y-12220476D02*
X11782905Y-12230000D01*
X11792428Y-12239524D01*
X11801952Y-12230000D01*
X11792428Y-12220476D01*
X11792428Y-12239524D01*
X11916238Y-12420476D02*
X11897190Y-12410952D01*
X11887667Y-12391905D01*
X11887667Y-12220476D01*
X12021000Y-12420476D02*
X12001952Y-12410952D01*
X11992428Y-12391905D01*
X11992428Y-12220476D01*
X12249571Y-12420476D02*
X12249571Y-12220476D01*
X12316238Y-12363333D01*
X12382905Y-12220476D01*
X12382905Y-12420476D01*
X12563857Y-12420476D02*
X12563857Y-12315714D01*
X12554333Y-12296667D01*
X12535286Y-12287143D01*
X12497190Y-12287143D01*
X12478143Y-12296667D01*
X12563857Y-12410952D02*
X12544809Y-12420476D01*
X12497190Y-12420476D01*
X12478143Y-12410952D01*
X12468619Y-12391905D01*
X12468619Y-12372857D01*
X12478143Y-12353809D01*
X12497190Y-12344286D01*
X12544809Y-12344286D01*
X12563857Y-12334762D01*
X12659095Y-12287143D02*
X12659095Y-12487143D01*
X12659095Y-12296667D02*
X12678143Y-12287143D01*
X12716238Y-12287143D01*
X12735286Y-12296667D01*
X12744809Y-12306190D01*
X12754333Y-12325238D01*
X12754333Y-12382381D01*
X12744809Y-12401428D01*
X12735286Y-12410952D01*
X12716238Y-12420476D01*
X12678143Y-12420476D01*
X12659095Y-12410952D01*
X12840048Y-12401428D02*
X12849571Y-12410952D01*
X12840048Y-12420476D01*
X12830524Y-12410952D01*
X12840048Y-12401428D01*
X12840048Y-12420476D01*
X12840048Y-12296667D02*
X12849571Y-12306190D01*
X12840048Y-12315714D01*
X12830524Y-12306190D01*
X12840048Y-12296667D01*
X12840048Y-12315714D01*
D11*
X11146000Y-12717500D02*
X11211000Y-12782500D01*
X11211000Y-12717500D02*
X11146000Y-12782500D01*
D10*
X11506714Y-12640476D02*
X11525762Y-12640476D01*
X11544809Y-12650000D01*
X11554333Y-12659524D01*
X11563857Y-12678571D01*
X11573381Y-12716667D01*
X11573381Y-12764286D01*
X11563857Y-12802381D01*
X11554333Y-12821428D01*
X11544809Y-12830952D01*
X11525762Y-12840476D01*
X11506714Y-12840476D01*
X11487667Y-12830952D01*
X11478143Y-12821428D01*
X11468619Y-12802381D01*
X11459095Y-12764286D01*
X11459095Y-12716667D01*
X11468619Y-12678571D01*
X11478143Y-12659524D01*
X11487667Y-12650000D01*
X11506714Y-12640476D01*
X11659095Y-12821428D02*
X11668619Y-12830952D01*
X11659095Y-12840476D01*
X11649571Y-12830952D01*
X11659095Y-12821428D01*
X11659095Y-12840476D01*
X11840048Y-12640476D02*
X11801952Y-12640476D01*
X11782905Y-12650000D01*
X11773381Y-12659524D01*
X11754333Y-12688095D01*
X11744809Y-12726190D01*
X11744809Y-12802381D01*
X11754333Y-12821428D01*
X11763857Y-12830952D01*
X11782905Y-12840476D01*
X11821000Y-12840476D01*
X11840048Y-12830952D01*
X11849571Y-12821428D01*
X11859095Y-12802381D01*
X11859095Y-12754762D01*
X11849571Y-12735714D01*
X11840048Y-12726190D01*
X11821000Y-12716667D01*
X11782905Y-12716667D01*
X11763857Y-12726190D01*
X11754333Y-12735714D01*
X11744809Y-12754762D01*
X12040048Y-12640476D02*
X11944809Y-12640476D01*
X11935286Y-12735714D01*
X11944809Y-12726190D01*
X11963857Y-12716667D01*
X12011476Y-12716667D01*
X12030524Y-12726190D01*
X12040048Y-12735714D01*
X12049571Y-12754762D01*
X12049571Y-12802381D01*
X12040048Y-12821428D01*
X12030524Y-12830952D01*
X12011476Y-12840476D01*
X11963857Y-12840476D01*
X11944809Y-12830952D01*
X11935286Y-12821428D01*
X12173381Y-12640476D02*
X12192428Y-12640476D01*
X12211476Y-12650000D01*
X12221000Y-12659524D01*
X12230524Y-12678571D01*
X12240048Y-12716667D01*
X12240048Y-12764286D01*
X12230524Y-12802381D01*
X12221000Y-12821428D01*
X12211476Y-12830952D01*
X12192428Y-12840476D01*
X12173381Y-12840476D01*
X12154333Y-12830952D01*
X12144809Y-12821428D01*
X12135286Y-12802381D01*
X12125762Y-12764286D01*
X12125762Y-12716667D01*
X12135286Y-12678571D01*
X12144809Y-12659524D01*
X12154333Y-12650000D01*
X12173381Y-12640476D01*
X12325762Y-12840476D02*
X12325762Y-12707143D01*
X12325762Y-12726190D02*
X12335286Y-12716667D01*
X12354333Y-12707143D01*
X12382905Y-12707143D01*
X12401952Y-12716667D01*
X12411476Y-12735714D01*
X12411476Y-12840476D01*
X12411476Y-12735714D02*
X12421000Y-12716667D01*
X12440048Y-12707143D01*
X12468619Y-12707143D01*
X12487667Y-12716667D01*
X12497190Y-12735714D01*
X12497190Y-12840476D01*
X12592428Y-12840476D02*
X12592428Y-12707143D01*
X12592428Y-12726190D02*
X12601952Y-12716667D01*
X12621000Y-12707143D01*
X12649571Y-12707143D01*
X12668619Y-12716667D01*
X12678143Y-12735714D01*
X12678143Y-12840476D01*
X12678143Y-12735714D02*
X12687667Y-12716667D01*
X12706714Y-12707143D01*
X12735286Y-12707143D01*
X12754333Y-12716667D01*
X12763857Y-12735714D01*
X12763857Y-12840476D01*
X13154333Y-12630952D02*
X12982905Y-12888095D01*
X13411476Y-12640476D02*
X13430524Y-12640476D01*
X13449571Y-12650000D01*
X13459095Y-12659524D01*
X13468619Y-12678571D01*
X13478143Y-12716667D01*
X13478143Y-12764286D01*
X13468619Y-12802381D01*
X13459095Y-12821428D01*
X13449571Y-12830952D01*
X13430524Y-12840476D01*
X13411476Y-12840476D01*
X13392428Y-12830952D01*
X13382905Y-12821428D01*
X13373381Y-12802381D01*
X13363857Y-12764286D01*
X13363857Y-12716667D01*
X13373381Y-12678571D01*
X13382905Y-12659524D01*
X13392428Y-12650000D01*
X13411476Y-12640476D01*
X13563857Y-12821428D02*
X13573381Y-12830952D01*
X13563857Y-12840476D01*
X13554333Y-12830952D01*
X13563857Y-12821428D01*
X13563857Y-12840476D01*
X13697190Y-12640476D02*
X13716238Y-12640476D01*
X13735286Y-12650000D01*
X13744809Y-12659524D01*
X13754333Y-12678571D01*
X13763857Y-12716667D01*
X13763857Y-12764286D01*
X13754333Y-12802381D01*
X13744809Y-12821428D01*
X13735286Y-12830952D01*
X13716238Y-12840476D01*
X13697190Y-12840476D01*
X13678143Y-12830952D01*
X13668619Y-12821428D01*
X13659095Y-12802381D01*
X13649571Y-12764286D01*
X13649571Y-12716667D01*
X13659095Y-12678571D01*
X13668619Y-12659524D01*
X13678143Y-12650000D01*
X13697190Y-12640476D01*
X13840048Y-12659524D02*
X13849571Y-12650000D01*
X13868619Y-12640476D01*
X13916238Y-12640476D01*
X13935286Y-12650000D01*
X13944809Y-12659524D01*
X13954333Y-12678571D01*
X13954333Y-12697619D01*
X13944809Y-12726190D01*
X13830524Y-12840476D01*
X13954333Y-12840476D01*
X14135286Y-12640476D02*
X14040048Y-12640476D01*
X14030524Y-12735714D01*
X14040048Y-12726190D01*
X14059095Y-12716667D01*
X14106714Y-12716667D01*
X14125762Y-12726190D01*
X14135286Y-12735714D01*
X14144809Y-12754762D01*
X14144809Y-12802381D01*
X14135286Y-12821428D01*
X14125762Y-12830952D01*
X14106714Y-12840476D01*
X14059095Y-12840476D01*
X14040048Y-12830952D01*
X14030524Y-12821428D01*
X14316238Y-12640476D02*
X14278143Y-12640476D01*
X14259095Y-12650000D01*
X14249571Y-12659524D01*
X14230524Y-12688095D01*
X14221000Y-12726190D01*
X14221000Y-12802381D01*
X14230524Y-12821428D01*
X14240048Y-12830952D01*
X14259095Y-12840476D01*
X14297190Y-12840476D01*
X14316238Y-12830952D01*
X14325762Y-12821428D01*
X14335286Y-12802381D01*
X14335286Y-12754762D01*
X14325762Y-12735714D01*
X14316238Y-12726190D01*
X14297190Y-12716667D01*
X14259095Y-12716667D01*
X14240048Y-12726190D01*
X14230524Y-12735714D01*
X14221000Y-12754762D01*
X14411476Y-12640476D02*
X14411476Y-12678571D01*
X14487667Y-12640476D02*
X14487667Y-12678571D01*
X14782905Y-12916667D02*
X14773381Y-12907143D01*
X14754333Y-12878571D01*
X14744809Y-12859524D01*
X14735286Y-12830952D01*
X14725762Y-12783333D01*
X14725762Y-12745238D01*
X14735286Y-12697619D01*
X14744809Y-12669048D01*
X14754333Y-12650000D01*
X14773381Y-12621428D01*
X14782905Y-12611905D01*
X14944809Y-12640476D02*
X14906714Y-12640476D01*
X14887667Y-12650000D01*
X14878143Y-12659524D01*
X14859095Y-12688095D01*
X14849571Y-12726190D01*
X14849571Y-12802381D01*
X14859095Y-12821428D01*
X14868619Y-12830952D01*
X14887667Y-12840476D01*
X14925762Y-12840476D01*
X14944809Y-12830952D01*
X14954333Y-12821428D01*
X14963857Y-12802381D01*
X14963857Y-12754762D01*
X14954333Y-12735714D01*
X14944809Y-12726190D01*
X14925762Y-12716667D01*
X14887667Y-12716667D01*
X14868619Y-12726190D01*
X14859095Y-12735714D01*
X14849571Y-12754762D01*
X15201952Y-12840476D02*
X15201952Y-12640476D01*
X15287667Y-12840476D02*
X15287667Y-12735714D01*
X15278143Y-12716667D01*
X15259095Y-12707143D01*
X15230524Y-12707143D01*
X15211476Y-12716667D01*
X15201952Y-12726190D01*
X15411476Y-12840476D02*
X15392428Y-12830952D01*
X15382905Y-12821428D01*
X15373381Y-12802381D01*
X15373381Y-12745238D01*
X15382905Y-12726190D01*
X15392428Y-12716667D01*
X15411476Y-12707143D01*
X15440048Y-12707143D01*
X15459095Y-12716667D01*
X15468619Y-12726190D01*
X15478143Y-12745238D01*
X15478143Y-12802381D01*
X15468619Y-12821428D01*
X15459095Y-12830952D01*
X15440048Y-12840476D01*
X15411476Y-12840476D01*
X15592428Y-12840476D02*
X15573381Y-12830952D01*
X15563857Y-12811905D01*
X15563857Y-12640476D01*
X15744809Y-12830952D02*
X15725762Y-12840476D01*
X15687667Y-12840476D01*
X15668619Y-12830952D01*
X15659095Y-12811905D01*
X15659095Y-12735714D01*
X15668619Y-12716667D01*
X15687667Y-12707143D01*
X15725762Y-12707143D01*
X15744809Y-12716667D01*
X15754333Y-12735714D01*
X15754333Y-12754762D01*
X15659095Y-12773809D01*
X15830524Y-12830952D02*
X15849571Y-12840476D01*
X15887667Y-12840476D01*
X15906714Y-12830952D01*
X15916238Y-12811905D01*
X15916238Y-12802381D01*
X15906714Y-12783333D01*
X15887667Y-12773809D01*
X15859095Y-12773809D01*
X15840048Y-12764286D01*
X15830524Y-12745238D01*
X15830524Y-12735714D01*
X15840048Y-12716667D01*
X15859095Y-12707143D01*
X15887667Y-12707143D01*
X15906714Y-12716667D01*
X15982905Y-12916667D02*
X15992428Y-12907143D01*
X16011476Y-12878571D01*
X16021000Y-12859524D01*
X16030524Y-12830952D01*
X16040048Y-12783333D01*
X16040048Y-12745238D01*
X16030524Y-12697619D01*
X16021000Y-12669048D01*
X16011476Y-12650000D01*
X15992428Y-12621428D01*
X15982905Y-12611905D01*
X16344809Y-12916667D02*
X16335286Y-12907143D01*
X16316238Y-12878571D01*
X16306714Y-12859524D01*
X16297190Y-12830952D01*
X16287667Y-12783333D01*
X16287667Y-12745238D01*
X16297190Y-12697619D01*
X16306714Y-12669048D01*
X16316238Y-12650000D01*
X16335286Y-12621428D01*
X16344809Y-12611905D01*
X16421000Y-12707143D02*
X16421000Y-12840476D01*
X16421000Y-12726190D02*
X16430524Y-12716667D01*
X16449571Y-12707143D01*
X16478143Y-12707143D01*
X16497190Y-12716667D01*
X16506714Y-12735714D01*
X16506714Y-12840476D01*
X16630524Y-12840476D02*
X16611476Y-12830952D01*
X16601952Y-12821428D01*
X16592428Y-12802381D01*
X16592428Y-12745238D01*
X16601952Y-12726190D01*
X16611476Y-12716667D01*
X16630524Y-12707143D01*
X16659095Y-12707143D01*
X16678143Y-12716667D01*
X16687667Y-12726190D01*
X16697190Y-12745238D01*
X16697190Y-12802381D01*
X16687667Y-12821428D01*
X16678143Y-12830952D01*
X16659095Y-12840476D01*
X16630524Y-12840476D01*
X16754333Y-12707143D02*
X16830524Y-12707143D01*
X16782905Y-12640476D02*
X16782905Y-12811905D01*
X16792429Y-12830952D01*
X16811476Y-12840476D01*
X16830524Y-12840476D01*
X17049571Y-12707143D02*
X17049571Y-12907143D01*
X17049571Y-12716667D02*
X17068619Y-12707143D01*
X17106714Y-12707143D01*
X17125762Y-12716667D01*
X17135286Y-12726190D01*
X17144810Y-12745238D01*
X17144810Y-12802381D01*
X17135286Y-12821428D01*
X17125762Y-12830952D01*
X17106714Y-12840476D01*
X17068619Y-12840476D01*
X17049571Y-12830952D01*
X17259095Y-12840476D02*
X17240048Y-12830952D01*
X17230524Y-12811905D01*
X17230524Y-12640476D01*
X17421000Y-12840476D02*
X17421000Y-12735714D01*
X17411476Y-12716667D01*
X17392429Y-12707143D01*
X17354333Y-12707143D01*
X17335286Y-12716667D01*
X17421000Y-12830952D02*
X17401952Y-12840476D01*
X17354333Y-12840476D01*
X17335286Y-12830952D01*
X17325762Y-12811905D01*
X17325762Y-12792857D01*
X17335286Y-12773809D01*
X17354333Y-12764286D01*
X17401952Y-12764286D01*
X17421000Y-12754762D01*
X17487667Y-12707143D02*
X17563857Y-12707143D01*
X17516238Y-12640476D02*
X17516238Y-12811905D01*
X17525762Y-12830952D01*
X17544810Y-12840476D01*
X17563857Y-12840476D01*
X17706714Y-12830952D02*
X17687667Y-12840476D01*
X17649571Y-12840476D01*
X17630524Y-12830952D01*
X17621000Y-12811905D01*
X17621000Y-12735714D01*
X17630524Y-12716667D01*
X17649571Y-12707143D01*
X17687667Y-12707143D01*
X17706714Y-12716667D01*
X17716238Y-12735714D01*
X17716238Y-12754762D01*
X17621000Y-12773809D01*
X17887667Y-12840476D02*
X17887667Y-12640476D01*
X17887667Y-12830952D02*
X17868619Y-12840476D01*
X17830524Y-12840476D01*
X17811476Y-12830952D01*
X17801952Y-12821428D01*
X17792429Y-12802381D01*
X17792429Y-12745238D01*
X17801952Y-12726190D01*
X17811476Y-12716667D01*
X17830524Y-12707143D01*
X17868619Y-12707143D01*
X17887667Y-12716667D01*
X17963857Y-12916667D02*
X17973381Y-12907143D01*
X17992429Y-12878571D01*
X18001952Y-12859524D01*
X18011476Y-12830952D01*
X18021000Y-12783333D01*
X18021000Y-12745238D01*
X18011476Y-12697619D01*
X18001952Y-12669048D01*
X17992429Y-12650000D01*
X17973381Y-12621428D01*
X17963857Y-12611905D01*
D12*
X11211000Y-13014000D02*
G75*
G03*
X11211000Y-13014000I-35000J0D01*
G01*
D10*
X11506714Y-12904476D02*
X11525762Y-12904476D01*
X11544809Y-12914000D01*
X11554333Y-12923524D01*
X11563857Y-12942571D01*
X11573381Y-12980667D01*
X11573381Y-13028286D01*
X11563857Y-13066381D01*
X11554333Y-13085428D01*
X11544809Y-13094952D01*
X11525762Y-13104476D01*
X11506714Y-13104476D01*
X11487667Y-13094952D01*
X11478143Y-13085428D01*
X11468619Y-13066381D01*
X11459095Y-13028286D01*
X11459095Y-12980667D01*
X11468619Y-12942571D01*
X11478143Y-12923524D01*
X11487667Y-12914000D01*
X11506714Y-12904476D01*
X11659095Y-13085428D02*
X11668619Y-13094952D01*
X11659095Y-13104476D01*
X11649571Y-13094952D01*
X11659095Y-13085428D01*
X11659095Y-13104476D01*
X11735286Y-12904476D02*
X11868619Y-12904476D01*
X11782905Y-13104476D01*
X11982905Y-12904476D02*
X12001952Y-12904476D01*
X12021000Y-12914000D01*
X12030524Y-12923524D01*
X12040048Y-12942571D01*
X12049571Y-12980667D01*
X12049571Y-13028286D01*
X12040048Y-13066381D01*
X12030524Y-13085428D01*
X12021000Y-13094952D01*
X12001952Y-13104476D01*
X11982905Y-13104476D01*
X11963857Y-13094952D01*
X11954333Y-13085428D01*
X11944809Y-13066381D01*
X11935286Y-13028286D01*
X11935286Y-12980667D01*
X11944809Y-12942571D01*
X11954333Y-12923524D01*
X11963857Y-12914000D01*
X11982905Y-12904476D01*
X12173381Y-12904476D02*
X12192428Y-12904476D01*
X12211476Y-12914000D01*
X12221000Y-12923524D01*
X12230524Y-12942571D01*
X12240048Y-12980667D01*
X12240048Y-13028286D01*
X12230524Y-13066381D01*
X12221000Y-13085428D01*
X12211476Y-13094952D01*
X12192428Y-13104476D01*
X12173381Y-13104476D01*
X12154333Y-13094952D01*
X12144809Y-13085428D01*
X12135286Y-13066381D01*
X12125762Y-13028286D01*
X12125762Y-12980667D01*
X12135286Y-12942571D01*
X12144809Y-12923524D01*
X12154333Y-12914000D01*
X12173381Y-12904476D01*
X12325762Y-13104476D02*
X12325762Y-12971143D01*
X12325762Y-12990190D02*
X12335286Y-12980667D01*
X12354333Y-12971143D01*
X12382905Y-12971143D01*
X12401952Y-12980667D01*
X12411476Y-12999714D01*
X12411476Y-13104476D01*
X12411476Y-12999714D02*
X12421000Y-12980667D01*
X12440048Y-12971143D01*
X12468619Y-12971143D01*
X12487667Y-12980667D01*
X12497190Y-12999714D01*
X12497190Y-13104476D01*
X12592428Y-13104476D02*
X12592428Y-12971143D01*
X12592428Y-12990190D02*
X12601952Y-12980667D01*
X12621000Y-12971143D01*
X12649571Y-12971143D01*
X12668619Y-12980667D01*
X12678143Y-12999714D01*
X12678143Y-13104476D01*
X12678143Y-12999714D02*
X12687667Y-12980667D01*
X12706714Y-12971143D01*
X12735286Y-12971143D01*
X12754333Y-12980667D01*
X12763857Y-12999714D01*
X12763857Y-13104476D01*
X13154333Y-12894952D02*
X12982905Y-13152095D01*
X13411476Y-12904476D02*
X13430524Y-12904476D01*
X13449571Y-12914000D01*
X13459095Y-12923524D01*
X13468619Y-12942571D01*
X13478143Y-12980667D01*
X13478143Y-13028286D01*
X13468619Y-13066381D01*
X13459095Y-13085428D01*
X13449571Y-13094952D01*
X13430524Y-13104476D01*
X13411476Y-13104476D01*
X13392428Y-13094952D01*
X13382905Y-13085428D01*
X13373381Y-13066381D01*
X13363857Y-13028286D01*
X13363857Y-12980667D01*
X13373381Y-12942571D01*
X13382905Y-12923524D01*
X13392428Y-12914000D01*
X13411476Y-12904476D01*
X13563857Y-13085428D02*
X13573381Y-13094952D01*
X13563857Y-13104476D01*
X13554333Y-13094952D01*
X13563857Y-13085428D01*
X13563857Y-13104476D01*
X13697190Y-12904476D02*
X13716238Y-12904476D01*
X13735286Y-12914000D01*
X13744809Y-12923524D01*
X13754333Y-12942571D01*
X13763857Y-12980667D01*
X13763857Y-13028286D01*
X13754333Y-13066381D01*
X13744809Y-13085428D01*
X13735286Y-13094952D01*
X13716238Y-13104476D01*
X13697190Y-13104476D01*
X13678143Y-13094952D01*
X13668619Y-13085428D01*
X13659095Y-13066381D01*
X13649571Y-13028286D01*
X13649571Y-12980667D01*
X13659095Y-12942571D01*
X13668619Y-12923524D01*
X13678143Y-12914000D01*
X13697190Y-12904476D01*
X13840048Y-12923524D02*
X13849571Y-12914000D01*
X13868619Y-12904476D01*
X13916238Y-12904476D01*
X13935286Y-12914000D01*
X13944809Y-12923524D01*
X13954333Y-12942571D01*
X13954333Y-12961619D01*
X13944809Y-12990190D01*
X13830524Y-13104476D01*
X13954333Y-13104476D01*
X14021000Y-12904476D02*
X14154333Y-12904476D01*
X14068619Y-13104476D01*
X14316238Y-12904476D02*
X14278143Y-12904476D01*
X14259095Y-12914000D01*
X14249571Y-12923524D01*
X14230524Y-12952095D01*
X14221000Y-12990190D01*
X14221000Y-13066381D01*
X14230524Y-13085428D01*
X14240048Y-13094952D01*
X14259095Y-13104476D01*
X14297190Y-13104476D01*
X14316238Y-13094952D01*
X14325762Y-13085428D01*
X14335286Y-13066381D01*
X14335286Y-13018762D01*
X14325762Y-12999714D01*
X14316238Y-12990190D01*
X14297190Y-12980667D01*
X14259095Y-12980667D01*
X14240048Y-12990190D01*
X14230524Y-12999714D01*
X14221000Y-13018762D01*
X14411476Y-12904476D02*
X14411476Y-12942571D01*
X14487667Y-12904476D02*
X14487667Y-12942571D01*
X14782905Y-13180667D02*
X14773381Y-13171143D01*
X14754333Y-13142571D01*
X14744809Y-13123524D01*
X14735286Y-13094952D01*
X14725762Y-13047333D01*
X14725762Y-13009238D01*
X14735286Y-12961619D01*
X14744809Y-12933048D01*
X14754333Y-12914000D01*
X14773381Y-12885428D01*
X14782905Y-12875905D01*
X14954333Y-12904476D02*
X14859095Y-12904476D01*
X14849571Y-12999714D01*
X14859095Y-12990190D01*
X14878143Y-12980667D01*
X14925762Y-12980667D01*
X14944809Y-12990190D01*
X14954333Y-12999714D01*
X14963857Y-13018762D01*
X14963857Y-13066381D01*
X14954333Y-13085428D01*
X14944809Y-13094952D01*
X14925762Y-13104476D01*
X14878143Y-13104476D01*
X14859095Y-13094952D01*
X14849571Y-13085428D01*
X15201952Y-13104476D02*
X15201952Y-12904476D01*
X15287667Y-13104476D02*
X15287667Y-12999714D01*
X15278143Y-12980667D01*
X15259095Y-12971143D01*
X15230524Y-12971143D01*
X15211476Y-12980667D01*
X15201952Y-12990190D01*
X15411476Y-13104476D02*
X15392428Y-13094952D01*
X15382905Y-13085428D01*
X15373381Y-13066381D01*
X15373381Y-13009238D01*
X15382905Y-12990190D01*
X15392428Y-12980667D01*
X15411476Y-12971143D01*
X15440048Y-12971143D01*
X15459095Y-12980667D01*
X15468619Y-12990190D01*
X15478143Y-13009238D01*
X15478143Y-13066381D01*
X15468619Y-13085428D01*
X15459095Y-13094952D01*
X15440048Y-13104476D01*
X15411476Y-13104476D01*
X15592428Y-13104476D02*
X15573381Y-13094952D01*
X15563857Y-13075905D01*
X15563857Y-12904476D01*
X15744809Y-13094952D02*
X15725762Y-13104476D01*
X15687667Y-13104476D01*
X15668619Y-13094952D01*
X15659095Y-13075905D01*
X15659095Y-12999714D01*
X15668619Y-12980667D01*
X15687667Y-12971143D01*
X15725762Y-12971143D01*
X15744809Y-12980667D01*
X15754333Y-12999714D01*
X15754333Y-13018762D01*
X15659095Y-13037809D01*
X15830524Y-13094952D02*
X15849571Y-13104476D01*
X15887667Y-13104476D01*
X15906714Y-13094952D01*
X15916238Y-13075905D01*
X15916238Y-13066381D01*
X15906714Y-13047333D01*
X15887667Y-13037809D01*
X15859095Y-13037809D01*
X15840048Y-13028286D01*
X15830524Y-13009238D01*
X15830524Y-12999714D01*
X15840048Y-12980667D01*
X15859095Y-12971143D01*
X15887667Y-12971143D01*
X15906714Y-12980667D01*
X15982905Y-13180667D02*
X15992428Y-13171143D01*
X16011476Y-13142571D01*
X16021000Y-13123524D01*
X16030524Y-13094952D01*
X16040048Y-13047333D01*
X16040048Y-13009238D01*
X16030524Y-12961619D01*
X16021000Y-12933048D01*
X16011476Y-12914000D01*
X15992428Y-12885428D01*
X15982905Y-12875905D01*
X16344809Y-13180667D02*
X16335286Y-13171143D01*
X16316238Y-13142571D01*
X16306714Y-13123524D01*
X16297190Y-13094952D01*
X16287667Y-13047333D01*
X16287667Y-13009238D01*
X16297190Y-12961619D01*
X16306714Y-12933048D01*
X16316238Y-12914000D01*
X16335286Y-12885428D01*
X16344809Y-12875905D01*
X16421000Y-12971143D02*
X16421000Y-13104476D01*
X16421000Y-12990190D02*
X16430524Y-12980667D01*
X16449571Y-12971143D01*
X16478143Y-12971143D01*
X16497190Y-12980667D01*
X16506714Y-12999714D01*
X16506714Y-13104476D01*
X16630524Y-13104476D02*
X16611476Y-13094952D01*
X16601952Y-13085428D01*
X16592428Y-13066381D01*
X16592428Y-13009238D01*
X16601952Y-12990190D01*
X16611476Y-12980667D01*
X16630524Y-12971143D01*
X16659095Y-12971143D01*
X16678143Y-12980667D01*
X16687667Y-12990190D01*
X16697190Y-13009238D01*
X16697190Y-13066381D01*
X16687667Y-13085428D01*
X16678143Y-13094952D01*
X16659095Y-13104476D01*
X16630524Y-13104476D01*
X16754333Y-12971143D02*
X16830524Y-12971143D01*
X16782905Y-12904476D02*
X16782905Y-13075905D01*
X16792429Y-13094952D01*
X16811476Y-13104476D01*
X16830524Y-13104476D01*
X17049571Y-12971143D02*
X17049571Y-13171143D01*
X17049571Y-12980667D02*
X17068619Y-12971143D01*
X17106714Y-12971143D01*
X17125762Y-12980667D01*
X17135286Y-12990190D01*
X17144810Y-13009238D01*
X17144810Y-13066381D01*
X17135286Y-13085428D01*
X17125762Y-13094952D01*
X17106714Y-13104476D01*
X17068619Y-13104476D01*
X17049571Y-13094952D01*
X17259095Y-13104476D02*
X17240048Y-13094952D01*
X17230524Y-13075905D01*
X17230524Y-12904476D01*
X17421000Y-13104476D02*
X17421000Y-12999714D01*
X17411476Y-12980667D01*
X17392429Y-12971143D01*
X17354333Y-12971143D01*
X17335286Y-12980667D01*
X17421000Y-13094952D02*
X17401952Y-13104476D01*
X17354333Y-13104476D01*
X17335286Y-13094952D01*
X17325762Y-13075905D01*
X17325762Y-13056857D01*
X17335286Y-13037809D01*
X17354333Y-13028286D01*
X17401952Y-13028286D01*
X17421000Y-13018762D01*
X17487667Y-12971143D02*
X17563857Y-12971143D01*
X17516238Y-12904476D02*
X17516238Y-13075905D01*
X17525762Y-13094952D01*
X17544810Y-13104476D01*
X17563857Y-13104476D01*
X17706714Y-13094952D02*
X17687667Y-13104476D01*
X17649571Y-13104476D01*
X17630524Y-13094952D01*
X17621000Y-13075905D01*
X17621000Y-12999714D01*
X17630524Y-12980667D01*
X17649571Y-12971143D01*
X17687667Y-12971143D01*
X17706714Y-12980667D01*
X17716238Y-12999714D01*
X17716238Y-13018762D01*
X17621000Y-13037809D01*
X17887667Y-13104476D02*
X17887667Y-12904476D01*
X17887667Y-13094952D02*
X17868619Y-13104476D01*
X17830524Y-13104476D01*
X17811476Y-13094952D01*
X17801952Y-13085428D01*
X17792429Y-13066381D01*
X17792429Y-13009238D01*
X17801952Y-12990190D01*
X17811476Y-12980667D01*
X17830524Y-12971143D01*
X17868619Y-12971143D01*
X17887667Y-12980667D01*
X17963857Y-13180667D02*
X17973381Y-13171143D01*
X17992429Y-13142571D01*
X18001952Y-13123524D01*
X18011476Y-13094952D01*
X18021000Y-13047333D01*
X18021000Y-13009238D01*
X18011476Y-12961619D01*
X18001952Y-12933048D01*
X17992429Y-12914000D01*
X17973381Y-12885428D01*
X17963857Y-12875905D01*
X11111000Y-13178000D02*
X11111000Y-13378000D01*
X11011000Y-13278000D02*
X11211000Y-13278000D01*
X11449571Y-13168476D02*
X11573381Y-13168476D01*
X11506714Y-13244667D01*
X11535286Y-13244667D01*
X11554333Y-13254190D01*
X11563857Y-13263714D01*
X11573381Y-13282762D01*
X11573381Y-13330381D01*
X11563857Y-13349428D01*
X11554333Y-13358952D01*
X11535286Y-13368476D01*
X11478143Y-13368476D01*
X11459095Y-13358952D01*
X11449571Y-13349428D01*
X11659095Y-13349428D02*
X11668619Y-13358952D01*
X11659095Y-13368476D01*
X11649571Y-13358952D01*
X11659095Y-13349428D01*
X11659095Y-13368476D01*
X11744809Y-13187524D02*
X11754333Y-13178000D01*
X11773381Y-13168476D01*
X11821000Y-13168476D01*
X11840048Y-13178000D01*
X11849571Y-13187524D01*
X11859095Y-13206571D01*
X11859095Y-13225619D01*
X11849571Y-13254190D01*
X11735286Y-13368476D01*
X11859095Y-13368476D01*
X11982905Y-13168476D02*
X12001952Y-13168476D01*
X12021000Y-13178000D01*
X12030524Y-13187524D01*
X12040048Y-13206571D01*
X12049571Y-13244667D01*
X12049571Y-13292286D01*
X12040048Y-13330381D01*
X12030524Y-13349428D01*
X12021000Y-13358952D01*
X12001952Y-13368476D01*
X11982905Y-13368476D01*
X11963857Y-13358952D01*
X11954333Y-13349428D01*
X11944809Y-13330381D01*
X11935286Y-13292286D01*
X11935286Y-13244667D01*
X11944809Y-13206571D01*
X11954333Y-13187524D01*
X11963857Y-13178000D01*
X11982905Y-13168476D01*
X12173381Y-13168476D02*
X12192428Y-13168476D01*
X12211476Y-13178000D01*
X12221000Y-13187524D01*
X12230524Y-13206571D01*
X12240048Y-13244667D01*
X12240048Y-13292286D01*
X12230524Y-13330381D01*
X12221000Y-13349428D01*
X12211476Y-13358952D01*
X12192428Y-13368476D01*
X12173381Y-13368476D01*
X12154333Y-13358952D01*
X12144809Y-13349428D01*
X12135286Y-13330381D01*
X12125762Y-13292286D01*
X12125762Y-13244667D01*
X12135286Y-13206571D01*
X12144809Y-13187524D01*
X12154333Y-13178000D01*
X12173381Y-13168476D01*
X12325762Y-13368476D02*
X12325762Y-13235143D01*
X12325762Y-13254190D02*
X12335286Y-13244667D01*
X12354333Y-13235143D01*
X12382905Y-13235143D01*
X12401952Y-13244667D01*
X12411476Y-13263714D01*
X12411476Y-13368476D01*
X12411476Y-13263714D02*
X12421000Y-13244667D01*
X12440048Y-13235143D01*
X12468619Y-13235143D01*
X12487667Y-13244667D01*
X12497190Y-13263714D01*
X12497190Y-13368476D01*
X12592428Y-13368476D02*
X12592428Y-13235143D01*
X12592428Y-13254190D02*
X12601952Y-13244667D01*
X12621000Y-13235143D01*
X12649571Y-13235143D01*
X12668619Y-13244667D01*
X12678143Y-13263714D01*
X12678143Y-13368476D01*
X12678143Y-13263714D02*
X12687667Y-13244667D01*
X12706714Y-13235143D01*
X12735286Y-13235143D01*
X12754333Y-13244667D01*
X12763857Y-13263714D01*
X12763857Y-13368476D01*
X13154333Y-13158952D02*
X12982905Y-13416095D01*
X13411476Y-13168476D02*
X13430524Y-13168476D01*
X13449571Y-13178000D01*
X13459095Y-13187524D01*
X13468619Y-13206571D01*
X13478143Y-13244667D01*
X13478143Y-13292286D01*
X13468619Y-13330381D01*
X13459095Y-13349428D01*
X13449571Y-13358952D01*
X13430524Y-13368476D01*
X13411476Y-13368476D01*
X13392428Y-13358952D01*
X13382905Y-13349428D01*
X13373381Y-13330381D01*
X13363857Y-13292286D01*
X13363857Y-13244667D01*
X13373381Y-13206571D01*
X13382905Y-13187524D01*
X13392428Y-13178000D01*
X13411476Y-13168476D01*
X13563857Y-13349428D02*
X13573381Y-13358952D01*
X13563857Y-13368476D01*
X13554333Y-13358952D01*
X13563857Y-13349428D01*
X13563857Y-13368476D01*
X13763857Y-13368476D02*
X13649571Y-13368476D01*
X13706714Y-13368476D02*
X13706714Y-13168476D01*
X13687667Y-13197048D01*
X13668619Y-13216095D01*
X13649571Y-13225619D01*
X13840048Y-13187524D02*
X13849571Y-13178000D01*
X13868619Y-13168476D01*
X13916238Y-13168476D01*
X13935286Y-13178000D01*
X13944809Y-13187524D01*
X13954333Y-13206571D01*
X13954333Y-13225619D01*
X13944809Y-13254190D01*
X13830524Y-13368476D01*
X13954333Y-13368476D01*
X14125762Y-13168476D02*
X14087667Y-13168476D01*
X14068619Y-13178000D01*
X14059095Y-13187524D01*
X14040048Y-13216095D01*
X14030524Y-13254190D01*
X14030524Y-13330381D01*
X14040048Y-13349428D01*
X14049571Y-13358952D01*
X14068619Y-13368476D01*
X14106714Y-13368476D01*
X14125762Y-13358952D01*
X14135286Y-13349428D01*
X14144809Y-13330381D01*
X14144809Y-13282762D01*
X14135286Y-13263714D01*
X14125762Y-13254190D01*
X14106714Y-13244667D01*
X14068619Y-13244667D01*
X14049571Y-13254190D01*
X14040048Y-13263714D01*
X14030524Y-13282762D01*
X14268619Y-13168476D02*
X14287667Y-13168476D01*
X14306714Y-13178000D01*
X14316238Y-13187524D01*
X14325762Y-13206571D01*
X14335286Y-13244667D01*
X14335286Y-13292286D01*
X14325762Y-13330381D01*
X14316238Y-13349428D01*
X14306714Y-13358952D01*
X14287667Y-13368476D01*
X14268619Y-13368476D01*
X14249571Y-13358952D01*
X14240048Y-13349428D01*
X14230524Y-13330381D01*
X14221000Y-13292286D01*
X14221000Y-13244667D01*
X14230524Y-13206571D01*
X14240048Y-13187524D01*
X14249571Y-13178000D01*
X14268619Y-13168476D01*
X14411476Y-13168476D02*
X14411476Y-13206571D01*
X14487667Y-13168476D02*
X14487667Y-13206571D01*
X14782905Y-13444667D02*
X14773381Y-13435143D01*
X14754333Y-13406571D01*
X14744809Y-13387524D01*
X14735286Y-13358952D01*
X14725762Y-13311333D01*
X14725762Y-13273238D01*
X14735286Y-13225619D01*
X14744809Y-13197048D01*
X14754333Y-13178000D01*
X14773381Y-13149428D01*
X14782905Y-13139905D01*
X14849571Y-13187524D02*
X14859095Y-13178000D01*
X14878143Y-13168476D01*
X14925762Y-13168476D01*
X14944809Y-13178000D01*
X14954333Y-13187524D01*
X14963857Y-13206571D01*
X14963857Y-13225619D01*
X14954333Y-13254190D01*
X14840048Y-13368476D01*
X14963857Y-13368476D01*
X15201952Y-13368476D02*
X15201952Y-13168476D01*
X15287667Y-13368476D02*
X15287667Y-13263714D01*
X15278143Y-13244667D01*
X15259095Y-13235143D01*
X15230524Y-13235143D01*
X15211476Y-13244667D01*
X15201952Y-13254190D01*
X15411476Y-13368476D02*
X15392428Y-13358952D01*
X15382905Y-13349428D01*
X15373381Y-13330381D01*
X15373381Y-13273238D01*
X15382905Y-13254190D01*
X15392428Y-13244667D01*
X15411476Y-13235143D01*
X15440048Y-13235143D01*
X15459095Y-13244667D01*
X15468619Y-13254190D01*
X15478143Y-13273238D01*
X15478143Y-13330381D01*
X15468619Y-13349428D01*
X15459095Y-13358952D01*
X15440048Y-13368476D01*
X15411476Y-13368476D01*
X15592428Y-13368476D02*
X15573381Y-13358952D01*
X15563857Y-13339905D01*
X15563857Y-13168476D01*
X15744809Y-13358952D02*
X15725762Y-13368476D01*
X15687667Y-13368476D01*
X15668619Y-13358952D01*
X15659095Y-13339905D01*
X15659095Y-13263714D01*
X15668619Y-13244667D01*
X15687667Y-13235143D01*
X15725762Y-13235143D01*
X15744809Y-13244667D01*
X15754333Y-13263714D01*
X15754333Y-13282762D01*
X15659095Y-13301809D01*
X15830524Y-13358952D02*
X15849571Y-13368476D01*
X15887667Y-13368476D01*
X15906714Y-13358952D01*
X15916238Y-13339905D01*
X15916238Y-13330381D01*
X15906714Y-13311333D01*
X15887667Y-13301809D01*
X15859095Y-13301809D01*
X15840048Y-13292286D01*
X15830524Y-13273238D01*
X15830524Y-13263714D01*
X15840048Y-13244667D01*
X15859095Y-13235143D01*
X15887667Y-13235143D01*
X15906714Y-13244667D01*
X15982905Y-13444667D02*
X15992428Y-13435143D01*
X16011476Y-13406571D01*
X16021000Y-13387524D01*
X16030524Y-13358952D01*
X16040048Y-13311333D01*
X16040048Y-13273238D01*
X16030524Y-13225619D01*
X16021000Y-13197048D01*
X16011476Y-13178000D01*
X15992428Y-13149428D01*
X15982905Y-13139905D01*
X16344809Y-13444667D02*
X16335286Y-13435143D01*
X16316238Y-13406571D01*
X16306714Y-13387524D01*
X16297190Y-13358952D01*
X16287667Y-13311333D01*
X16287667Y-13273238D01*
X16297190Y-13225619D01*
X16306714Y-13197048D01*
X16316238Y-13178000D01*
X16335286Y-13149428D01*
X16344809Y-13139905D01*
X16421000Y-13235143D02*
X16421000Y-13368476D01*
X16421000Y-13254190D02*
X16430524Y-13244667D01*
X16449571Y-13235143D01*
X16478143Y-13235143D01*
X16497190Y-13244667D01*
X16506714Y-13263714D01*
X16506714Y-13368476D01*
X16630524Y-13368476D02*
X16611476Y-13358952D01*
X16601952Y-13349428D01*
X16592428Y-13330381D01*
X16592428Y-13273238D01*
X16601952Y-13254190D01*
X16611476Y-13244667D01*
X16630524Y-13235143D01*
X16659095Y-13235143D01*
X16678143Y-13244667D01*
X16687667Y-13254190D01*
X16697190Y-13273238D01*
X16697190Y-13330381D01*
X16687667Y-13349428D01*
X16678143Y-13358952D01*
X16659095Y-13368476D01*
X16630524Y-13368476D01*
X16754333Y-13235143D02*
X16830524Y-13235143D01*
X16782905Y-13168476D02*
X16782905Y-13339905D01*
X16792429Y-13358952D01*
X16811476Y-13368476D01*
X16830524Y-13368476D01*
X17049571Y-13235143D02*
X17049571Y-13435143D01*
X17049571Y-13244667D02*
X17068619Y-13235143D01*
X17106714Y-13235143D01*
X17125762Y-13244667D01*
X17135286Y-13254190D01*
X17144810Y-13273238D01*
X17144810Y-13330381D01*
X17135286Y-13349428D01*
X17125762Y-13358952D01*
X17106714Y-13368476D01*
X17068619Y-13368476D01*
X17049571Y-13358952D01*
X17259095Y-13368476D02*
X17240048Y-13358952D01*
X17230524Y-13339905D01*
X17230524Y-13168476D01*
X17421000Y-13368476D02*
X17421000Y-13263714D01*
X17411476Y-13244667D01*
X17392429Y-13235143D01*
X17354333Y-13235143D01*
X17335286Y-13244667D01*
X17421000Y-13358952D02*
X17401952Y-13368476D01*
X17354333Y-13368476D01*
X17335286Y-13358952D01*
X17325762Y-13339905D01*
X17325762Y-13320857D01*
X17335286Y-13301809D01*
X17354333Y-13292286D01*
X17401952Y-13292286D01*
X17421000Y-13282762D01*
X17487667Y-13235143D02*
X17563857Y-13235143D01*
X17516238Y-13168476D02*
X17516238Y-13339905D01*
X17525762Y-13358952D01*
X17544810Y-13368476D01*
X17563857Y-13368476D01*
X17706714Y-13358952D02*
X17687667Y-13368476D01*
X17649571Y-13368476D01*
X17630524Y-13358952D01*
X17621000Y-13339905D01*
X17621000Y-13263714D01*
X17630524Y-13244667D01*
X17649571Y-13235143D01*
X17687667Y-13235143D01*
X17706714Y-13244667D01*
X17716238Y-13263714D01*
X17716238Y-13282762D01*
X17621000Y-13301809D01*
X17887667Y-13368476D02*
X17887667Y-13168476D01*
X17887667Y-13358952D02*
X17868619Y-13368476D01*
X17830524Y-13368476D01*
X17811476Y-13358952D01*
X17801952Y-13349428D01*
X17792429Y-13330381D01*
X17792429Y-13273238D01*
X17801952Y-13254190D01*
X17811476Y-13244667D01*
X17830524Y-13235143D01*
X17868619Y-13235143D01*
X17887667Y-13244667D01*
X17963857Y-13444667D02*
X17973381Y-13435143D01*
X17992429Y-13406571D01*
X18001952Y-13387524D01*
X18011476Y-13358952D01*
X18021000Y-13311333D01*
X18021000Y-13273238D01*
X18011476Y-13225619D01*
X18001952Y-13197048D01*
X17992429Y-13178000D01*
X17973381Y-13149428D01*
X17963857Y-13139905D01*
M02*
