%TF.GenerationSoftware,KiCad,Pcbnew,(6.0.9)*%
%TF.CreationDate,2022-11-14T10:49:34+01:00*%
%TF.ProjectId,latte,6c617474-652e-46b6-9963-61645f706362,rev?*%
%TF.SameCoordinates,Original*%
%TF.FileFunction,Legend,Bot*%
%TF.FilePolarity,Positive*%
%FSLAX46Y46*%
G04 Gerber Fmt 4.6, Leading zero omitted, Abs format (unit mm)*
G04 Created by KiCad (PCBNEW (6.0.9)) date 2022-11-14 10:49:34*
%MOMM*%
%LPD*%
G01*
G04 APERTURE LIST*
%ADD10C,0.800000*%
%ADD11C,6.400000*%
%ADD12R,2.300000X2.300000*%
%ADD13C,2.300000*%
%ADD14C,0.650000*%
%ADD15O,2.100000X1.000000*%
%ADD16O,1.600000X1.000000*%
%ADD17C,0.700000*%
%ADD18O,0.800000X1.500000*%
%ADD19C,3.200000*%
%ADD20R,1.500000X1.500000*%
%ADD21C,1.500000*%
%ADD22R,1.500000X1.600000*%
%ADD23C,1.600000*%
%ADD24C,3.000000*%
G04 APERTURE END LIST*
%LPC*%
D10*
X155810000Y-75000000D03*
X160610000Y-75000000D03*
X156512944Y-76697056D03*
X156512944Y-73302944D03*
X158210000Y-77400000D03*
X159907056Y-76697056D03*
D11*
X158210000Y-75000000D03*
D10*
X158210000Y-72600000D03*
X159907056Y-73302944D03*
D12*
X139750000Y-116950000D03*
D13*
X134670000Y-116950000D03*
D14*
X155795000Y-110640000D03*
X155795000Y-104860000D03*
D15*
X155295000Y-103430000D03*
X155295000Y-112070000D03*
D16*
X159475000Y-103430000D03*
X159475000Y-112070000D03*
D14*
X118765000Y-87140000D03*
X118765000Y-81360000D03*
D15*
X119265000Y-88570000D03*
D16*
X115085000Y-79930000D03*
X115085000Y-88570000D03*
D15*
X119265000Y-79930000D03*
D17*
X151540000Y-118715000D03*
X149000000Y-118715000D03*
X150270000Y-118715000D03*
X146460000Y-118715000D03*
X147730000Y-118715000D03*
D18*
X147095000Y-119870000D03*
X148365000Y-119870000D03*
X149635000Y-119870000D03*
X150905000Y-119870000D03*
D11*
X116210000Y-117000000D03*
D10*
X116210000Y-114600000D03*
X118610000Y-117000000D03*
X114512944Y-118697056D03*
X116210000Y-119400000D03*
X117907056Y-115302944D03*
X113810000Y-117000000D03*
X114512944Y-115302944D03*
X117907056Y-118697056D03*
X113810000Y-75000000D03*
X117907056Y-76697056D03*
X114512944Y-76697056D03*
X117907056Y-73302944D03*
X118610000Y-75000000D03*
X114512944Y-73302944D03*
X116210000Y-72600000D03*
X116210000Y-77400000D03*
D11*
X116210000Y-75000000D03*
D19*
X131332500Y-78950000D03*
X142762500Y-78950000D03*
D20*
X141492500Y-85300000D03*
D21*
X140222500Y-87840000D03*
X138952500Y-85300000D03*
X137682500Y-87840000D03*
X136412500Y-85300000D03*
X135142500Y-87840000D03*
X133872500Y-85300000D03*
X132602500Y-87840000D03*
D22*
X149000000Y-89500000D03*
D23*
X149000000Y-87000000D03*
X149000000Y-85000000D03*
X149000000Y-82500000D03*
D24*
X151710000Y-79430000D03*
X151710000Y-92570000D03*
D10*
X159907056Y-115302944D03*
D11*
X158210000Y-117000000D03*
D10*
X160610000Y-117000000D03*
X156512944Y-118697056D03*
X159907056Y-118697056D03*
X156512944Y-115302944D03*
X158210000Y-114600000D03*
X158210000Y-119400000D03*
X155810000Y-117000000D03*
D14*
X118765000Y-104860000D03*
X118765000Y-110640000D03*
D16*
X115085000Y-103430000D03*
X115085000Y-112070000D03*
D15*
X119265000Y-112070000D03*
X119265000Y-103430000D03*
M02*
