%TF.GenerationSoftware,KiCad,Pcbnew,(6.0.9)*%
%TF.CreationDate,2022-11-14T10:49:34+01:00*%
%TF.ProjectId,latte,6c617474-652e-46b6-9963-61645f706362,rev?*%
%TF.SameCoordinates,Original*%
%TF.FileFunction,Legend,Top*%
%TF.FilePolarity,Positive*%
%FSLAX46Y46*%
G04 Gerber Fmt 4.6, Leading zero omitted, Abs format (unit mm)*
G04 Created by KiCad (PCBNEW (6.0.9)) date 2022-11-14 10:49:34*
%MOMM*%
%LPD*%
G01*
G04 APERTURE LIST*
G04 Aperture macros list*
%AMRoundRect*
0 Rectangle with rounded corners*
0 $1 Rounding radius*
0 $2 $3 $4 $5 $6 $7 $8 $9 X,Y pos of 4 corners*
0 Add a 4 corners polygon primitive as box body*
4,1,4,$2,$3,$4,$5,$6,$7,$8,$9,$2,$3,0*
0 Add four circle primitives for the rounded corners*
1,1,$1+$1,$2,$3*
1,1,$1+$1,$4,$5*
1,1,$1+$1,$6,$7*
1,1,$1+$1,$8,$9*
0 Add four rect primitives between the rounded corners*
20,1,$1+$1,$2,$3,$4,$5,0*
20,1,$1+$1,$4,$5,$6,$7,0*
20,1,$1+$1,$6,$7,$8,$9,0*
20,1,$1+$1,$8,$9,$2,$3,0*%
G04 Aperture macros list end*
%ADD10C,0.150000*%
%ADD11C,0.120000*%
%ADD12C,0.100000*%
%ADD13C,0.800000*%
%ADD14C,6.400000*%
%ADD15RoundRect,0.225000X0.250000X-0.225000X0.250000X0.225000X-0.250000X0.225000X-0.250000X-0.225000X0*%
%ADD16RoundRect,0.200000X0.200000X0.275000X-0.200000X0.275000X-0.200000X-0.275000X0.200000X-0.275000X0*%
%ADD17RoundRect,0.200000X-0.200000X-0.275000X0.200000X-0.275000X0.200000X0.275000X-0.200000X0.275000X0*%
%ADD18RoundRect,0.150000X0.150000X-0.587500X0.150000X0.587500X-0.150000X0.587500X-0.150000X-0.587500X0*%
%ADD19RoundRect,0.225000X-0.225000X-0.250000X0.225000X-0.250000X0.225000X0.250000X-0.225000X0.250000X0*%
%ADD20R,2.300000X2.300000*%
%ADD21C,2.300000*%
%ADD22C,0.650000*%
%ADD23R,1.150000X0.300000*%
%ADD24O,2.100000X1.000000*%
%ADD25O,1.600000X1.000000*%
%ADD26RoundRect,0.225000X0.225000X0.250000X-0.225000X0.250000X-0.225000X-0.250000X0.225000X-0.250000X0*%
%ADD27R,1.100000X1.100000*%
%ADD28RoundRect,0.050000X-0.050000X0.350000X-0.050000X-0.350000X0.050000X-0.350000X0.050000X0.350000X0*%
%ADD29RoundRect,0.050000X-0.325000X0.050000X-0.325000X-0.050000X0.325000X-0.050000X0.325000X0.050000X0*%
%ADD30RoundRect,0.225000X-0.250000X0.225000X-0.250000X-0.225000X0.250000X-0.225000X0.250000X0.225000X0*%
%ADD31R,1.600000X2.000000*%
%ADD32RoundRect,0.218750X0.218750X0.256250X-0.218750X0.256250X-0.218750X-0.256250X0.218750X-0.256250X0*%
%ADD33C,0.700000*%
%ADD34O,0.800000X1.500000*%
%ADD35RoundRect,0.150000X0.150000X-0.512500X0.150000X0.512500X-0.150000X0.512500X-0.150000X-0.512500X0*%
%ADD36C,3.200000*%
%ADD37R,1.500000X1.500000*%
%ADD38C,1.500000*%
%ADD39RoundRect,0.150000X0.512500X0.150000X-0.512500X0.150000X-0.512500X-0.150000X0.512500X-0.150000X0*%
%ADD40RoundRect,0.150000X-0.512500X-0.150000X0.512500X-0.150000X0.512500X0.150000X-0.512500X0.150000X0*%
%ADD41R,1.500000X1.600000*%
%ADD42C,1.600000*%
%ADD43C,3.000000*%
%ADD44RoundRect,0.200000X-0.275000X0.200000X-0.275000X-0.200000X0.275000X-0.200000X0.275000X0.200000X0*%
%ADD45RoundRect,0.218750X-0.256250X0.218750X-0.256250X-0.218750X0.256250X-0.218750X0.256250X0.218750X0*%
%ADD46RoundRect,0.150000X-0.587500X-0.150000X0.587500X-0.150000X0.587500X0.150000X-0.587500X0.150000X0*%
%ADD47RoundRect,0.050000X0.050000X-0.387500X0.050000X0.387500X-0.050000X0.387500X-0.050000X-0.387500X0*%
%ADD48RoundRect,0.050000X0.387500X-0.050000X0.387500X0.050000X-0.387500X0.050000X-0.387500X-0.050000X0*%
%ADD49R,3.200000X3.200000*%
%ADD50RoundRect,0.218750X0.256250X-0.218750X0.256250X0.218750X-0.256250X0.218750X-0.256250X-0.218750X0*%
%ADD51R,1.200000X1.400000*%
%ADD52RoundRect,0.150000X0.150000X-0.825000X0.150000X0.825000X-0.150000X0.825000X-0.150000X-0.825000X0*%
%ADD53RoundRect,0.150000X0.587500X0.150000X-0.587500X0.150000X-0.587500X-0.150000X0.587500X-0.150000X0*%
G04 APERTURE END LIST*
D10*
X125461904Y-98857142D02*
X126109523Y-98857142D01*
X126185714Y-98819047D01*
X126223809Y-98780952D01*
X126261904Y-98704761D01*
X126261904Y-98552380D01*
X126223809Y-98476190D01*
X126185714Y-98438095D01*
X126109523Y-98400000D01*
X125461904Y-98400000D01*
X126223809Y-98057142D02*
X126261904Y-97942857D01*
X126261904Y-97752380D01*
X126223809Y-97676190D01*
X126185714Y-97638095D01*
X126109523Y-97600000D01*
X126033333Y-97600000D01*
X125957142Y-97638095D01*
X125919047Y-97676190D01*
X125880952Y-97752380D01*
X125842857Y-97904761D01*
X125804761Y-97980952D01*
X125766666Y-98019047D01*
X125690476Y-98057142D01*
X125614285Y-98057142D01*
X125538095Y-98019047D01*
X125500000Y-97980952D01*
X125461904Y-97904761D01*
X125461904Y-97714285D01*
X125500000Y-97600000D01*
X125842857Y-96990476D02*
X125880952Y-96876190D01*
X125919047Y-96838095D01*
X125995238Y-96800000D01*
X126109523Y-96800000D01*
X126185714Y-96838095D01*
X126223809Y-96876190D01*
X126261904Y-96952380D01*
X126261904Y-97257142D01*
X125461904Y-97257142D01*
X125461904Y-96990476D01*
X125500000Y-96914285D01*
X125538095Y-96876190D01*
X125614285Y-96838095D01*
X125690476Y-96838095D01*
X125766666Y-96876190D01*
X125804761Y-96914285D01*
X125842857Y-96990476D01*
X125842857Y-97257142D01*
X125842857Y-95580952D02*
X125880952Y-95466666D01*
X125919047Y-95428571D01*
X125995238Y-95390476D01*
X126109523Y-95390476D01*
X126185714Y-95428571D01*
X126223809Y-95466666D01*
X126261904Y-95542857D01*
X126261904Y-95847619D01*
X125461904Y-95847619D01*
X125461904Y-95580952D01*
X125500000Y-95504761D01*
X125538095Y-95466666D01*
X125614285Y-95428571D01*
X125690476Y-95428571D01*
X125766666Y-95466666D01*
X125804761Y-95504761D01*
X125842857Y-95580952D01*
X125842857Y-95847619D01*
X125461904Y-94895238D02*
X125461904Y-94742857D01*
X125500000Y-94666666D01*
X125576190Y-94590476D01*
X125728571Y-94552380D01*
X125995238Y-94552380D01*
X126147619Y-94590476D01*
X126223809Y-94666666D01*
X126261904Y-94742857D01*
X126261904Y-94895238D01*
X126223809Y-94971428D01*
X126147619Y-95047619D01*
X125995238Y-95085714D01*
X125728571Y-95085714D01*
X125576190Y-95047619D01*
X125500000Y-94971428D01*
X125461904Y-94895238D01*
X125461904Y-94057142D02*
X125461904Y-93904761D01*
X125500000Y-93828571D01*
X125576190Y-93752380D01*
X125728571Y-93714285D01*
X125995238Y-93714285D01*
X126147619Y-93752380D01*
X126223809Y-93828571D01*
X126261904Y-93904761D01*
X126261904Y-94057142D01*
X126223809Y-94133333D01*
X126147619Y-94209523D01*
X125995238Y-94247619D01*
X125728571Y-94247619D01*
X125576190Y-94209523D01*
X125500000Y-94133333D01*
X125461904Y-94057142D01*
X125461904Y-93485714D02*
X125461904Y-93028571D01*
X126261904Y-93257142D02*
X125461904Y-93257142D01*
X134429047Y-112533333D02*
X134810000Y-112533333D01*
X134352857Y-112761904D02*
X134619523Y-111961904D01*
X134886190Y-112761904D01*
X135610000Y-112685714D02*
X135571904Y-112723809D01*
X135457619Y-112761904D01*
X135381428Y-112761904D01*
X135267142Y-112723809D01*
X135190952Y-112647619D01*
X135152857Y-112571428D01*
X135114761Y-112419047D01*
X135114761Y-112304761D01*
X135152857Y-112152380D01*
X135190952Y-112076190D01*
X135267142Y-112000000D01*
X135381428Y-111961904D01*
X135457619Y-111961904D01*
X135571904Y-112000000D01*
X135610000Y-112038095D01*
X135838571Y-111961904D02*
X136295714Y-111961904D01*
X136067142Y-112761904D02*
X136067142Y-111961904D01*
X136562380Y-111961904D02*
X136562380Y-112609523D01*
X136600476Y-112685714D01*
X136638571Y-112723809D01*
X136714761Y-112761904D01*
X136867142Y-112761904D01*
X136943333Y-112723809D01*
X136981428Y-112685714D01*
X137019523Y-112609523D01*
X137019523Y-111961904D01*
X137362380Y-112533333D02*
X137743333Y-112533333D01*
X137286190Y-112761904D02*
X137552857Y-111961904D01*
X137819523Y-112761904D01*
X137971904Y-111961904D02*
X138429047Y-111961904D01*
X138200476Y-112761904D02*
X138200476Y-111961904D01*
X138848095Y-111961904D02*
X139000476Y-111961904D01*
X139076666Y-112000000D01*
X139152857Y-112076190D01*
X139190952Y-112228571D01*
X139190952Y-112495238D01*
X139152857Y-112647619D01*
X139076666Y-112723809D01*
X139000476Y-112761904D01*
X138848095Y-112761904D01*
X138771904Y-112723809D01*
X138695714Y-112647619D01*
X138657619Y-112495238D01*
X138657619Y-112228571D01*
X138695714Y-112076190D01*
X138771904Y-112000000D01*
X138848095Y-111961904D01*
X139990952Y-112761904D02*
X139724285Y-112380952D01*
X139533809Y-112761904D02*
X139533809Y-111961904D01*
X139838571Y-111961904D01*
X139914761Y-112000000D01*
X139952857Y-112038095D01*
X139990952Y-112114285D01*
X139990952Y-112228571D01*
X139952857Y-112304761D01*
X139914761Y-112342857D01*
X139838571Y-112380952D01*
X139533809Y-112380952D01*
X154061904Y-101961904D02*
X154061904Y-101161904D01*
X154252380Y-101161904D01*
X154366666Y-101200000D01*
X154442857Y-101276190D01*
X154480952Y-101352380D01*
X154519047Y-101504761D01*
X154519047Y-101619047D01*
X154480952Y-101771428D01*
X154442857Y-101847619D01*
X154366666Y-101923809D01*
X154252380Y-101961904D01*
X154061904Y-101961904D01*
X154861904Y-101161904D02*
X154861904Y-101809523D01*
X154900000Y-101885714D01*
X154938095Y-101923809D01*
X155014285Y-101961904D01*
X155166666Y-101961904D01*
X155242857Y-101923809D01*
X155280952Y-101885714D01*
X155319047Y-101809523D01*
X155319047Y-101161904D01*
X155585714Y-101161904D02*
X156042857Y-101161904D01*
X155814285Y-101961904D02*
X155814285Y-101161904D01*
X157376190Y-101885714D02*
X157338095Y-101923809D01*
X157223809Y-101961904D01*
X157147619Y-101961904D01*
X157033333Y-101923809D01*
X156957142Y-101847619D01*
X156919047Y-101771428D01*
X156880952Y-101619047D01*
X156880952Y-101504761D01*
X156919047Y-101352380D01*
X156957142Y-101276190D01*
X157033333Y-101200000D01*
X157147619Y-101161904D01*
X157223809Y-101161904D01*
X157338095Y-101200000D01*
X157376190Y-101238095D01*
X146676190Y-113473904D02*
X146295238Y-113473904D01*
X146295238Y-112673904D01*
X146904761Y-113245333D02*
X147285714Y-113245333D01*
X146828571Y-113473904D02*
X147095238Y-112673904D01*
X147361904Y-113473904D01*
X147514285Y-112673904D02*
X147971428Y-112673904D01*
X147742857Y-113473904D02*
X147742857Y-112673904D01*
X148123809Y-112673904D02*
X148580952Y-112673904D01*
X148352380Y-113473904D02*
X148352380Y-112673904D01*
X148847619Y-113054857D02*
X149114285Y-113054857D01*
X149228571Y-113473904D02*
X148847619Y-113473904D01*
X148847619Y-112673904D01*
X149228571Y-112673904D01*
X150600000Y-113473904D02*
X150142857Y-113473904D01*
X150371428Y-113473904D02*
X150371428Y-112673904D01*
X150295238Y-112788190D01*
X150219047Y-112864380D01*
X150142857Y-112902476D01*
X150942857Y-113397714D02*
X150980952Y-113435809D01*
X150942857Y-113473904D01*
X150904761Y-113435809D01*
X150942857Y-113397714D01*
X150942857Y-113473904D01*
X151476190Y-112673904D02*
X151552380Y-112673904D01*
X151628571Y-112712000D01*
X151666666Y-112750095D01*
X151704761Y-112826285D01*
X151742857Y-112978666D01*
X151742857Y-113169142D01*
X151704761Y-113321523D01*
X151666666Y-113397714D01*
X151628571Y-113435809D01*
X151552380Y-113473904D01*
X151476190Y-113473904D01*
X151400000Y-113435809D01*
X151361904Y-113397714D01*
X151323809Y-113321523D01*
X151285714Y-113169142D01*
X151285714Y-112978666D01*
X151323809Y-112826285D01*
X151361904Y-112750095D01*
X151400000Y-112712000D01*
X151476190Y-112673904D01*
X144276190Y-113961904D02*
X144542857Y-114761904D01*
X144809523Y-113961904D01*
X145190476Y-114761904D02*
X145114285Y-114723809D01*
X145076190Y-114685714D01*
X145038095Y-114609523D01*
X145038095Y-114380952D01*
X145076190Y-114304761D01*
X145114285Y-114266666D01*
X145190476Y-114228571D01*
X145304761Y-114228571D01*
X145380952Y-114266666D01*
X145419047Y-114304761D01*
X145457142Y-114380952D01*
X145457142Y-114609523D01*
X145419047Y-114685714D01*
X145380952Y-114723809D01*
X145304761Y-114761904D01*
X145190476Y-114761904D01*
X145800000Y-114228571D02*
X145800000Y-114914285D01*
X145761904Y-114990476D01*
X145685714Y-115028571D01*
X145647619Y-115028571D01*
X145800000Y-113961904D02*
X145761904Y-114000000D01*
X145800000Y-114038095D01*
X145838095Y-114000000D01*
X145800000Y-113961904D01*
X145800000Y-114038095D01*
X146066666Y-114228571D02*
X146371428Y-114228571D01*
X146180952Y-113961904D02*
X146180952Y-114647619D01*
X146219047Y-114723809D01*
X146295238Y-114761904D01*
X146371428Y-114761904D01*
X146942857Y-114723809D02*
X146866666Y-114761904D01*
X146714285Y-114761904D01*
X146638095Y-114723809D01*
X146600000Y-114647619D01*
X146600000Y-114342857D01*
X146638095Y-114266666D01*
X146714285Y-114228571D01*
X146866666Y-114228571D01*
X146942857Y-114266666D01*
X146980952Y-114342857D01*
X146980952Y-114419047D01*
X146600000Y-114495238D01*
X146638095Y-113923809D02*
X146790476Y-114038095D01*
X146942857Y-113923809D01*
X147666666Y-114723809D02*
X147590476Y-114761904D01*
X147438095Y-114761904D01*
X147361904Y-114723809D01*
X147323809Y-114685714D01*
X147285714Y-114609523D01*
X147285714Y-114380952D01*
X147323809Y-114304761D01*
X147361904Y-114266666D01*
X147438095Y-114228571D01*
X147590476Y-114228571D01*
X147666666Y-114266666D01*
X148009523Y-114761904D02*
X148009523Y-113961904D01*
X148352380Y-114761904D02*
X148352380Y-114342857D01*
X148314285Y-114266666D01*
X148238095Y-114228571D01*
X148123809Y-114228571D01*
X148047619Y-114266666D01*
X148009523Y-114304761D01*
X149228571Y-113961904D02*
X149495238Y-114761904D01*
X149761904Y-113961904D01*
X150142857Y-114761904D02*
X150066666Y-114723809D01*
X150028571Y-114685714D01*
X149990476Y-114609523D01*
X149990476Y-114380952D01*
X150028571Y-114304761D01*
X150066666Y-114266666D01*
X150142857Y-114228571D01*
X150257142Y-114228571D01*
X150333333Y-114266666D01*
X150371428Y-114304761D01*
X150409523Y-114380952D01*
X150409523Y-114609523D01*
X150371428Y-114685714D01*
X150333333Y-114723809D01*
X150257142Y-114761904D01*
X150142857Y-114761904D01*
X150714285Y-114723809D02*
X150790476Y-114761904D01*
X150942857Y-114761904D01*
X151019047Y-114723809D01*
X151057142Y-114647619D01*
X151057142Y-114609523D01*
X151019047Y-114533333D01*
X150942857Y-114495238D01*
X150828571Y-114495238D01*
X150752380Y-114457142D01*
X150714285Y-114380952D01*
X150714285Y-114342857D01*
X150752380Y-114266666D01*
X150828571Y-114228571D01*
X150942857Y-114228571D01*
X151019047Y-114266666D01*
X151742857Y-114761904D02*
X151742857Y-114342857D01*
X151704761Y-114266666D01*
X151628571Y-114228571D01*
X151476190Y-114228571D01*
X151400000Y-114266666D01*
X151742857Y-114723809D02*
X151666666Y-114761904D01*
X151476190Y-114761904D01*
X151400000Y-114723809D01*
X151361904Y-114647619D01*
X151361904Y-114571428D01*
X151400000Y-114495238D01*
X151476190Y-114457142D01*
X151666666Y-114457142D01*
X151742857Y-114419047D01*
X151628571Y-113923809D02*
X151514285Y-114038095D01*
X152123809Y-114761904D02*
X152123809Y-113961904D01*
X152466666Y-114761904D02*
X152466666Y-114342857D01*
X152428571Y-114266666D01*
X152352380Y-114228571D01*
X152238095Y-114228571D01*
X152161904Y-114266666D01*
X152123809Y-114304761D01*
X152961904Y-114761904D02*
X152885714Y-114723809D01*
X152847619Y-114647619D01*
X152847619Y-113961904D01*
X153380952Y-114761904D02*
X153304761Y-114723809D01*
X153266666Y-114685714D01*
X153228571Y-114609523D01*
X153228571Y-114380952D01*
X153266666Y-114304761D01*
X153304761Y-114266666D01*
X153380952Y-114228571D01*
X153495238Y-114228571D01*
X153571428Y-114266666D01*
X153609523Y-114304761D01*
X153647619Y-114380952D01*
X153647619Y-114609523D01*
X153609523Y-114685714D01*
X153571428Y-114723809D01*
X153495238Y-114761904D01*
X153380952Y-114761904D01*
X146180952Y-116049904D02*
X145723809Y-116049904D01*
X145952380Y-116049904D02*
X145952380Y-115249904D01*
X145876190Y-115364190D01*
X145800000Y-115440380D01*
X145723809Y-115478476D01*
X146447619Y-115249904D02*
X146942857Y-115249904D01*
X146676190Y-115554666D01*
X146790476Y-115554666D01*
X146866666Y-115592761D01*
X146904761Y-115630857D01*
X146942857Y-115707047D01*
X146942857Y-115897523D01*
X146904761Y-115973714D01*
X146866666Y-116011809D01*
X146790476Y-116049904D01*
X146561904Y-116049904D01*
X146485714Y-116011809D01*
X146447619Y-115973714D01*
X147285714Y-115973714D02*
X147323809Y-116011809D01*
X147285714Y-116049904D01*
X147247619Y-116011809D01*
X147285714Y-115973714D01*
X147285714Y-116049904D01*
X148085714Y-116049904D02*
X147628571Y-116049904D01*
X147857142Y-116049904D02*
X147857142Y-115249904D01*
X147780952Y-115364190D01*
X147704761Y-115440380D01*
X147628571Y-115478476D01*
X148847619Y-116049904D02*
X148390476Y-116049904D01*
X148619047Y-116049904D02*
X148619047Y-115249904D01*
X148542857Y-115364190D01*
X148466666Y-115440380D01*
X148390476Y-115478476D01*
X149190476Y-115973714D02*
X149228571Y-116011809D01*
X149190476Y-116049904D01*
X149152380Y-116011809D01*
X149190476Y-115973714D01*
X149190476Y-116049904D01*
X149533333Y-115326095D02*
X149571428Y-115288000D01*
X149647619Y-115249904D01*
X149838095Y-115249904D01*
X149914285Y-115288000D01*
X149952380Y-115326095D01*
X149990476Y-115402285D01*
X149990476Y-115478476D01*
X149952380Y-115592761D01*
X149495238Y-116049904D01*
X149990476Y-116049904D01*
X150485714Y-115249904D02*
X150561904Y-115249904D01*
X150638095Y-115288000D01*
X150676190Y-115326095D01*
X150714285Y-115402285D01*
X150752380Y-115554666D01*
X150752380Y-115745142D01*
X150714285Y-115897523D01*
X150676190Y-115973714D01*
X150638095Y-116011809D01*
X150561904Y-116049904D01*
X150485714Y-116049904D01*
X150409523Y-116011809D01*
X150371428Y-115973714D01*
X150333333Y-115897523D01*
X150295238Y-115745142D01*
X150295238Y-115554666D01*
X150333333Y-115402285D01*
X150371428Y-115326095D01*
X150409523Y-115288000D01*
X150485714Y-115249904D01*
X151057142Y-115326095D02*
X151095238Y-115288000D01*
X151171428Y-115249904D01*
X151361904Y-115249904D01*
X151438095Y-115288000D01*
X151476190Y-115326095D01*
X151514285Y-115402285D01*
X151514285Y-115478476D01*
X151476190Y-115592761D01*
X151019047Y-116049904D01*
X151514285Y-116049904D01*
X151819047Y-115326095D02*
X151857142Y-115288000D01*
X151933333Y-115249904D01*
X152123809Y-115249904D01*
X152200000Y-115288000D01*
X152238095Y-115326095D01*
X152276190Y-115402285D01*
X152276190Y-115478476D01*
X152238095Y-115592761D01*
X151780952Y-116049904D01*
X152276190Y-116049904D01*
X154119047Y-94361904D02*
X154119047Y-93561904D01*
X154309523Y-93561904D01*
X154423809Y-93600000D01*
X154500000Y-93676190D01*
X154538095Y-93752380D01*
X154576190Y-93904761D01*
X154576190Y-94019047D01*
X154538095Y-94171428D01*
X154500000Y-94247619D01*
X154423809Y-94323809D01*
X154309523Y-94361904D01*
X154119047Y-94361904D01*
X154919047Y-93561904D02*
X154919047Y-94209523D01*
X154957142Y-94285714D01*
X154995238Y-94323809D01*
X155071428Y-94361904D01*
X155223809Y-94361904D01*
X155300000Y-94323809D01*
X155338095Y-94285714D01*
X155376190Y-94209523D01*
X155376190Y-93561904D01*
X155642857Y-93561904D02*
X156100000Y-93561904D01*
X155871428Y-94361904D02*
X155871428Y-93561904D01*
X156938095Y-94133333D02*
X157319047Y-94133333D01*
X156861904Y-94361904D02*
X157128571Y-93561904D01*
X157395238Y-94361904D01*
X113797380Y-90561904D02*
X113797380Y-89761904D01*
X114102142Y-89761904D01*
X114178333Y-89800000D01*
X114216428Y-89838095D01*
X114254523Y-89914285D01*
X114254523Y-90028571D01*
X114216428Y-90104761D01*
X114178333Y-90142857D01*
X114102142Y-90180952D01*
X113797380Y-90180952D01*
X115054523Y-90485714D02*
X115016428Y-90523809D01*
X114902142Y-90561904D01*
X114825952Y-90561904D01*
X114711666Y-90523809D01*
X114635476Y-90447619D01*
X114597380Y-90371428D01*
X114559285Y-90219047D01*
X114559285Y-90104761D01*
X114597380Y-89952380D01*
X114635476Y-89876190D01*
X114711666Y-89800000D01*
X114825952Y-89761904D01*
X114902142Y-89761904D01*
X115016428Y-89800000D01*
X115054523Y-89838095D01*
X116464047Y-90485714D02*
X116425952Y-90523809D01*
X116311666Y-90561904D01*
X116235476Y-90561904D01*
X116121190Y-90523809D01*
X116045000Y-90447619D01*
X116006904Y-90371428D01*
X115968809Y-90219047D01*
X115968809Y-90104761D01*
X116006904Y-89952380D01*
X116045000Y-89876190D01*
X116121190Y-89800000D01*
X116235476Y-89761904D01*
X116311666Y-89761904D01*
X116425952Y-89800000D01*
X116464047Y-89838095D01*
X116959285Y-89761904D02*
X117111666Y-89761904D01*
X117187857Y-89800000D01*
X117264047Y-89876190D01*
X117302142Y-90028571D01*
X117302142Y-90295238D01*
X117264047Y-90447619D01*
X117187857Y-90523809D01*
X117111666Y-90561904D01*
X116959285Y-90561904D01*
X116883095Y-90523809D01*
X116806904Y-90447619D01*
X116768809Y-90295238D01*
X116768809Y-90028571D01*
X116806904Y-89876190D01*
X116883095Y-89800000D01*
X116959285Y-89761904D01*
X117645000Y-90561904D02*
X117645000Y-89761904D01*
X117911666Y-90333333D01*
X118178333Y-89761904D01*
X118178333Y-90561904D01*
X118559285Y-90561904D02*
X118559285Y-89761904D01*
X118825952Y-90333333D01*
X119092619Y-89761904D01*
X119092619Y-90561904D01*
X114406904Y-102161904D02*
X114406904Y-101361904D01*
X114711666Y-101361904D01*
X114787857Y-101400000D01*
X114825952Y-101438095D01*
X114864047Y-101514285D01*
X114864047Y-101628571D01*
X114825952Y-101704761D01*
X114787857Y-101742857D01*
X114711666Y-101780952D01*
X114406904Y-101780952D01*
X115664047Y-102085714D02*
X115625952Y-102123809D01*
X115511666Y-102161904D01*
X115435476Y-102161904D01*
X115321190Y-102123809D01*
X115245000Y-102047619D01*
X115206904Y-101971428D01*
X115168809Y-101819047D01*
X115168809Y-101704761D01*
X115206904Y-101552380D01*
X115245000Y-101476190D01*
X115321190Y-101400000D01*
X115435476Y-101361904D01*
X115511666Y-101361904D01*
X115625952Y-101400000D01*
X115664047Y-101438095D01*
X116616428Y-102161904D02*
X116616428Y-101361904D01*
X116806904Y-101361904D01*
X116921190Y-101400000D01*
X116997380Y-101476190D01*
X117035476Y-101552380D01*
X117073571Y-101704761D01*
X117073571Y-101819047D01*
X117035476Y-101971428D01*
X116997380Y-102047619D01*
X116921190Y-102123809D01*
X116806904Y-102161904D01*
X116616428Y-102161904D01*
X117416428Y-101361904D02*
X117416428Y-102009523D01*
X117454523Y-102085714D01*
X117492619Y-102123809D01*
X117568809Y-102161904D01*
X117721190Y-102161904D01*
X117797380Y-102123809D01*
X117835476Y-102085714D01*
X117873571Y-102009523D01*
X117873571Y-101361904D01*
X118140238Y-101361904D02*
X118597380Y-101361904D01*
X118368809Y-102161904D02*
X118368809Y-101361904D01*
X128823809Y-89109523D02*
X128861904Y-88995238D01*
X128861904Y-88804761D01*
X128823809Y-88728571D01*
X128785714Y-88690476D01*
X128709523Y-88652380D01*
X128633333Y-88652380D01*
X128557142Y-88690476D01*
X128519047Y-88728571D01*
X128480952Y-88804761D01*
X128442857Y-88957142D01*
X128404761Y-89033333D01*
X128366666Y-89071428D01*
X128290476Y-89109523D01*
X128214285Y-89109523D01*
X128138095Y-89071428D01*
X128100000Y-89033333D01*
X128061904Y-88957142D01*
X128061904Y-88766666D01*
X128100000Y-88652380D01*
X128442857Y-88309523D02*
X128442857Y-88042857D01*
X128861904Y-87928571D02*
X128861904Y-88309523D01*
X128061904Y-88309523D01*
X128061904Y-87928571D01*
X128861904Y-87585714D02*
X128061904Y-87585714D01*
X128861904Y-87128571D01*
X128061904Y-87128571D01*
X128823809Y-86785714D02*
X128861904Y-86671428D01*
X128861904Y-86480952D01*
X128823809Y-86404761D01*
X128785714Y-86366666D01*
X128709523Y-86328571D01*
X128633333Y-86328571D01*
X128557142Y-86366666D01*
X128519047Y-86404761D01*
X128480952Y-86480952D01*
X128442857Y-86633333D01*
X128404761Y-86709523D01*
X128366666Y-86747619D01*
X128290476Y-86785714D01*
X128214285Y-86785714D01*
X128138095Y-86747619D01*
X128100000Y-86709523D01*
X128061904Y-86633333D01*
X128061904Y-86442857D01*
X128100000Y-86328571D01*
X128061904Y-85833333D02*
X128061904Y-85680952D01*
X128100000Y-85604761D01*
X128176190Y-85528571D01*
X128328571Y-85490476D01*
X128595238Y-85490476D01*
X128747619Y-85528571D01*
X128823809Y-85604761D01*
X128861904Y-85680952D01*
X128861904Y-85833333D01*
X128823809Y-85909523D01*
X128747619Y-85985714D01*
X128595238Y-86023809D01*
X128328571Y-86023809D01*
X128176190Y-85985714D01*
X128100000Y-85909523D01*
X128061904Y-85833333D01*
X128861904Y-84690476D02*
X128480952Y-84957142D01*
X128861904Y-85147619D02*
X128061904Y-85147619D01*
X128061904Y-84842857D01*
X128100000Y-84766666D01*
X128138095Y-84728571D01*
X128214285Y-84690476D01*
X128328571Y-84690476D01*
X128404761Y-84728571D01*
X128442857Y-84766666D01*
X128480952Y-84842857D01*
X128480952Y-85147619D01*
X147914285Y-117823809D02*
X148028571Y-117861904D01*
X148219047Y-117861904D01*
X148295238Y-117823809D01*
X148333333Y-117785714D01*
X148371428Y-117709523D01*
X148371428Y-117633333D01*
X148333333Y-117557142D01*
X148295238Y-117519047D01*
X148219047Y-117480952D01*
X148066666Y-117442857D01*
X147990476Y-117404761D01*
X147952380Y-117366666D01*
X147914285Y-117290476D01*
X147914285Y-117214285D01*
X147952380Y-117138095D01*
X147990476Y-117100000D01*
X148066666Y-117061904D01*
X148257142Y-117061904D01*
X148371428Y-117100000D01*
X148638095Y-117061904D02*
X148828571Y-117861904D01*
X148980952Y-117290476D01*
X149133333Y-117861904D01*
X149323809Y-117061904D01*
X149628571Y-117861904D02*
X149628571Y-117061904D01*
X149819047Y-117061904D01*
X149933333Y-117100000D01*
X150009523Y-117176190D01*
X150047619Y-117252380D01*
X150085714Y-117404761D01*
X150085714Y-117519047D01*
X150047619Y-117671428D01*
X150009523Y-117747619D01*
X149933333Y-117823809D01*
X149819047Y-117861904D01*
X149628571Y-117861904D01*
D11*
X134340000Y-97740580D02*
X134340000Y-97459420D01*
X135360000Y-97740580D02*
X135360000Y-97459420D01*
X152137258Y-110772500D02*
X151662742Y-110772500D01*
X152137258Y-109727500D02*
X151662742Y-109727500D01*
X159637258Y-100522500D02*
X159162742Y-100522500D01*
X159637258Y-99477500D02*
X159162742Y-99477500D01*
X122462742Y-91622500D02*
X122937258Y-91622500D01*
X122462742Y-90577500D02*
X122937258Y-90577500D01*
X135160000Y-91700000D02*
X135160000Y-91050000D01*
X135160000Y-91700000D02*
X135160000Y-92350000D01*
X132040000Y-91700000D02*
X132040000Y-93375000D01*
X132040000Y-91700000D02*
X132040000Y-91050000D01*
X143609420Y-101410000D02*
X143890580Y-101410000D01*
X143609420Y-100390000D02*
X143890580Y-100390000D01*
X151662742Y-105772500D02*
X152137258Y-105772500D01*
X151662742Y-104727500D02*
X152137258Y-104727500D01*
X118145242Y-92660000D02*
X118619758Y-92660000D01*
X118145242Y-91615000D02*
X118619758Y-91615000D01*
X121872500Y-74740580D02*
X121872500Y-74459420D01*
X120852500Y-74740580D02*
X120852500Y-74459420D01*
X132130000Y-120760000D02*
X142290000Y-120760000D01*
X132130000Y-113140000D02*
X132130000Y-120760000D01*
X132130000Y-114410000D02*
X142290000Y-114410000D01*
X142290000Y-120760000D02*
X142290000Y-113140000D01*
X142290000Y-113140000D02*
X132130000Y-113140000D01*
X162185000Y-103170000D02*
X162185000Y-112330000D01*
X162185000Y-112330000D02*
X160480000Y-112330000D01*
X158470000Y-103170000D02*
X156550000Y-103170000D01*
X160480000Y-103170000D02*
X162185000Y-103170000D01*
X156550000Y-112330000D02*
X158470000Y-112330000D01*
X131390580Y-100340000D02*
X131109420Y-100340000D01*
X131390580Y-101360000D02*
X131109420Y-101360000D01*
X127818246Y-101872004D02*
X128292762Y-101872004D01*
X127818246Y-100827004D02*
X128292762Y-100827004D01*
X125610000Y-87750000D02*
X121760000Y-87750000D01*
X125610000Y-89750000D02*
X125610000Y-87750000D01*
X125610000Y-89750000D02*
X121760000Y-89750000D01*
X144790000Y-108560000D02*
X145240000Y-108560000D01*
X146810000Y-108560000D02*
X146360000Y-108560000D01*
X144790000Y-107040000D02*
X145240000Y-107040000D01*
X122897258Y-86227500D02*
X122422742Y-86227500D01*
X122897258Y-87272500D02*
X122422742Y-87272500D01*
X126840580Y-105710000D02*
X126559420Y-105710000D01*
X126840580Y-104690000D02*
X126559420Y-104690000D01*
X122422742Y-104727500D02*
X122897258Y-104727500D01*
X122422742Y-105772500D02*
X122897258Y-105772500D01*
X126052500Y-77759420D02*
X126052500Y-78040580D01*
X127072500Y-77759420D02*
X127072500Y-78040580D01*
X151462742Y-73877500D02*
X151937258Y-73877500D01*
X151462742Y-74922500D02*
X151937258Y-74922500D01*
X159162742Y-95077500D02*
X159637258Y-95077500D01*
X159162742Y-96122500D02*
X159637258Y-96122500D01*
X128960000Y-118200000D02*
X128960000Y-118850000D01*
X128960000Y-118200000D02*
X128960000Y-117550000D01*
X125840000Y-118200000D02*
X125840000Y-117550000D01*
X125840000Y-118200000D02*
X125840000Y-119875000D01*
X125050000Y-99100000D02*
X125050000Y-92900000D01*
X124400000Y-99100000D02*
X125050000Y-99100000D01*
X121350000Y-92900000D02*
X121350000Y-99100000D01*
X121350000Y-99100000D02*
X122000000Y-99100000D01*
X125050000Y-92900000D02*
X124400000Y-92900000D01*
X121350000Y-92900000D02*
X122000000Y-92900000D01*
X112375000Y-79670000D02*
X114080000Y-79670000D01*
X116090000Y-88830000D02*
X118010000Y-88830000D01*
X114080000Y-88830000D02*
X112375000Y-88830000D01*
X112375000Y-88830000D02*
X112375000Y-79670000D01*
X118010000Y-79670000D02*
X116090000Y-79670000D01*
X114400000Y-92872500D02*
X116685000Y-92872500D01*
X116685000Y-91402500D02*
X114400000Y-91402500D01*
X116685000Y-92872500D02*
X116685000Y-91402500D01*
X118145242Y-96522500D02*
X118619758Y-96522500D01*
X118145242Y-95477500D02*
X118619758Y-95477500D01*
X143512742Y-99922500D02*
X143987258Y-99922500D01*
X143512742Y-98877500D02*
X143987258Y-98877500D01*
D12*
X150270000Y-120239000D02*
X150270000Y-119350000D01*
X151540000Y-120239000D02*
X151540000Y-119350000D01*
X150270000Y-120239000D02*
G75*
G03*
X151540000Y-120239000I635000J0D01*
G01*
D11*
X125610000Y-102250000D02*
X121760000Y-102250000D01*
X125610000Y-104250000D02*
X125610000Y-102250000D01*
X125610000Y-104250000D02*
X121760000Y-104250000D01*
X122422742Y-81227500D02*
X122897258Y-81227500D01*
X122422742Y-82272500D02*
X122897258Y-82272500D01*
X138110000Y-97740580D02*
X138110000Y-97459420D01*
X137090000Y-97740580D02*
X137090000Y-97459420D01*
X145860000Y-91800000D02*
X145860000Y-92600000D01*
X145860000Y-91800000D02*
X145860000Y-91000000D01*
X142740000Y-91800000D02*
X142740000Y-91000000D01*
X142740000Y-91800000D02*
X142740000Y-93600000D01*
X144992500Y-85300000D02*
X145492500Y-85800000D01*
X144807500Y-89180000D02*
X144807500Y-71220000D01*
X145492500Y-84800000D02*
X144992500Y-85300000D01*
X144807500Y-71220000D02*
X129287500Y-71220000D01*
X145492500Y-85800000D02*
X145492500Y-84800000D01*
X129287500Y-89180000D02*
X144807500Y-89180000D01*
X129287500Y-89180000D02*
X129287500Y-71220000D01*
X151400000Y-106190000D02*
X152200000Y-106190000D01*
X151400000Y-106190000D02*
X150600000Y-106190000D01*
X151400000Y-109310000D02*
X153200000Y-109310000D01*
X151400000Y-109310000D02*
X150600000Y-109310000D01*
X131490000Y-98740580D02*
X131490000Y-98459420D01*
X132510000Y-98740580D02*
X132510000Y-98459420D01*
X147259420Y-97890000D02*
X147540580Y-97890000D01*
X147259420Y-98910000D02*
X147540580Y-98910000D01*
X123160000Y-85810000D02*
X123960000Y-85810000D01*
X123160000Y-82690000D02*
X121360000Y-82690000D01*
X123160000Y-85810000D02*
X122360000Y-85810000D01*
X123160000Y-82690000D02*
X123960000Y-82690000D01*
X161580000Y-92660000D02*
X153470000Y-92660000D01*
X161580000Y-78690000D02*
X161580000Y-79340000D01*
X146620000Y-92660000D02*
X146620000Y-79340000D01*
X146400000Y-90400000D02*
X146400000Y-88600000D01*
X162100000Y-78690000D02*
X161580000Y-78690000D01*
X162100000Y-93310000D02*
X162100000Y-78690000D01*
X161580000Y-92660000D02*
X161580000Y-93310000D01*
X161580000Y-93310000D02*
X162100000Y-93310000D01*
X146620000Y-79340000D02*
X149950000Y-79340000D01*
X146620000Y-92660000D02*
X149950000Y-92660000D01*
X153470000Y-79340000D02*
X161580000Y-79340000D01*
X143609420Y-102910000D02*
X143890580Y-102910000D01*
X143609420Y-101890000D02*
X143890580Y-101890000D01*
X123722500Y-118062742D02*
X123722500Y-118537258D01*
X122677500Y-118062742D02*
X122677500Y-118537258D01*
X135410000Y-108859420D02*
X135410000Y-109140580D01*
X134390000Y-108859420D02*
X134390000Y-109140580D01*
X158580000Y-94735000D02*
X160865000Y-94735000D01*
X160865000Y-94735000D02*
X160865000Y-93265000D01*
X160865000Y-93265000D02*
X158580000Y-93265000D01*
X131500000Y-120400000D02*
X131500000Y-116550000D01*
X129500000Y-120400000D02*
X131500000Y-120400000D01*
X129500000Y-120400000D02*
X129500000Y-116550000D01*
X122110000Y-118137221D02*
X122110000Y-118462779D01*
X121090000Y-118137221D02*
X121090000Y-118462779D01*
X122897258Y-109727500D02*
X122422742Y-109727500D01*
X122897258Y-110772500D02*
X122422742Y-110772500D01*
X142877500Y-115862742D02*
X142877500Y-116337258D01*
X143922500Y-115862742D02*
X143922500Y-116337258D01*
X130300000Y-93840000D02*
X130950000Y-93840000D01*
X130300000Y-96960000D02*
X129650000Y-96960000D01*
X130300000Y-96960000D02*
X130950000Y-96960000D01*
X130300000Y-93840000D02*
X128625000Y-93840000D01*
X141110000Y-106910000D02*
X140460000Y-106910000D01*
X133890000Y-99690000D02*
X134540000Y-99690000D01*
X141110000Y-99690000D02*
X140460000Y-99690000D01*
X133890000Y-100340000D02*
X133890000Y-99690000D01*
X133890000Y-106260000D02*
X133890000Y-106910000D01*
X141110000Y-106260000D02*
X141110000Y-106910000D01*
X141110000Y-100340000D02*
X141110000Y-99690000D01*
X139040000Y-91700000D02*
X139040000Y-93375000D01*
X142160000Y-91700000D02*
X142160000Y-91050000D01*
X142160000Y-91700000D02*
X142160000Y-92350000D01*
X139040000Y-91700000D02*
X139040000Y-91050000D01*
X116685000Y-96735000D02*
X116685000Y-95265000D01*
X116685000Y-95265000D02*
X114400000Y-95265000D01*
X114400000Y-96735000D02*
X116685000Y-96735000D01*
X124452500Y-77759420D02*
X124452500Y-78040580D01*
X125472500Y-77759420D02*
X125472500Y-78040580D01*
X131010000Y-98740580D02*
X131010000Y-98459420D01*
X129990000Y-98740580D02*
X129990000Y-98459420D01*
X131190580Y-105310000D02*
X130909420Y-105310000D01*
X131190580Y-104290000D02*
X130909420Y-104290000D01*
X144135000Y-120685000D02*
X144135000Y-118400000D01*
X142665000Y-120685000D02*
X144135000Y-120685000D01*
X142665000Y-118400000D02*
X142665000Y-120685000D01*
X118145242Y-99340000D02*
X118619758Y-99340000D01*
X118145242Y-100385000D02*
X118619758Y-100385000D01*
X145859420Y-111110000D02*
X146140580Y-111110000D01*
X145859420Y-110090000D02*
X146140580Y-110090000D01*
X149760000Y-74400000D02*
X149760000Y-73750000D01*
X149760000Y-74400000D02*
X149760000Y-75050000D01*
X146640000Y-74400000D02*
X146640000Y-76075000D01*
X146640000Y-74400000D02*
X146640000Y-73750000D01*
X123160000Y-106190000D02*
X123960000Y-106190000D01*
X123160000Y-106190000D02*
X121360000Y-106190000D01*
X123160000Y-109310000D02*
X123960000Y-109310000D01*
X123160000Y-109310000D02*
X122360000Y-109310000D01*
X149050000Y-103400000D02*
X149050000Y-99400000D01*
X145750000Y-103400000D02*
X149050000Y-103400000D01*
X128540000Y-91700000D02*
X128540000Y-91050000D01*
X131660000Y-91700000D02*
X131660000Y-91050000D01*
X131660000Y-91700000D02*
X131660000Y-92350000D01*
X128540000Y-91700000D02*
X128540000Y-93375000D01*
X124277500Y-118062742D02*
X124277500Y-118537258D01*
X125322500Y-118062742D02*
X125322500Y-118537258D01*
X151559420Y-73410000D02*
X151840580Y-73410000D01*
X151559420Y-72390000D02*
X151840580Y-72390000D01*
X126840000Y-109700000D02*
X126840000Y-107750000D01*
X131960000Y-109700000D02*
X131960000Y-107750000D01*
X126840000Y-109700000D02*
X126840000Y-113150000D01*
X131960000Y-109700000D02*
X131960000Y-111650000D01*
X131190580Y-103810000D02*
X130909420Y-103810000D01*
X131190580Y-102790000D02*
X130909420Y-102790000D01*
X138660000Y-91700000D02*
X138660000Y-92350000D01*
X135540000Y-91700000D02*
X135540000Y-91050000D01*
X138660000Y-91700000D02*
X138660000Y-91050000D01*
X135540000Y-91700000D02*
X135540000Y-93375000D01*
X147259420Y-104910000D02*
X147540580Y-104910000D01*
X147259420Y-103890000D02*
X147540580Y-103890000D01*
X138860000Y-108859420D02*
X138860000Y-109140580D01*
X137840000Y-108859420D02*
X137840000Y-109140580D01*
X158580000Y-102335000D02*
X160865000Y-102335000D01*
X160865000Y-100865000D02*
X158580000Y-100865000D01*
X160865000Y-102335000D02*
X160865000Y-100865000D01*
X118010000Y-103170000D02*
X116090000Y-103170000D01*
X112375000Y-112330000D02*
X112375000Y-103170000D01*
X112375000Y-103170000D02*
X114080000Y-103170000D01*
X114080000Y-112330000D02*
X112375000Y-112330000D01*
X116090000Y-112330000D02*
X118010000Y-112330000D01*
X140400000Y-93840000D02*
X139750000Y-93840000D01*
X140400000Y-96960000D02*
X139750000Y-96960000D01*
X140400000Y-96960000D02*
X142075000Y-96960000D01*
X140400000Y-93840000D02*
X141050000Y-93840000D01*
X151937258Y-76422500D02*
X151462742Y-76422500D01*
X151937258Y-75377500D02*
X151462742Y-75377500D01*
X125262500Y-73040000D02*
X123462500Y-73040000D01*
X125262500Y-73040000D02*
X126062500Y-73040000D01*
X125262500Y-76160000D02*
X124462500Y-76160000D01*
X125262500Y-76160000D02*
X126062500Y-76160000D01*
X127818246Y-102327004D02*
X128292762Y-102327004D01*
X127818246Y-103372004D02*
X128292762Y-103372004D01*
X143987258Y-104372500D02*
X143512742Y-104372500D01*
X143987258Y-103327500D02*
X143512742Y-103327500D01*
X114400000Y-100597500D02*
X116685000Y-100597500D01*
X116685000Y-100597500D02*
X116685000Y-99127500D01*
X116685000Y-99127500D02*
X114400000Y-99127500D01*
%LPC*%
D13*
X155810000Y-75000000D03*
X160610000Y-75000000D03*
X156512944Y-76697056D03*
X156512944Y-73302944D03*
X158210000Y-77400000D03*
X159907056Y-76697056D03*
D14*
X158210000Y-75000000D03*
D13*
X158210000Y-72600000D03*
X159907056Y-73302944D03*
D15*
X134850000Y-98375000D03*
X134850000Y-96825000D03*
D16*
X152725000Y-110250000D03*
X151075000Y-110250000D03*
X160225000Y-100000000D03*
X158575000Y-100000000D03*
D17*
X121875000Y-91100000D03*
X123525000Y-91100000D03*
D18*
X132650000Y-92637500D03*
X134550000Y-92637500D03*
X133600000Y-90762500D03*
D19*
X142975000Y-100900000D03*
X144525000Y-100900000D03*
D17*
X151075000Y-105250000D03*
X152725000Y-105250000D03*
X117557500Y-92137500D03*
X119207500Y-92137500D03*
D15*
X121362500Y-75375000D03*
X121362500Y-73825000D03*
D20*
X139750000Y-116950000D03*
D21*
X134670000Y-116950000D03*
D22*
X155795000Y-110640000D03*
X155795000Y-104860000D03*
D23*
X154730000Y-111100000D03*
X154730000Y-110300000D03*
X154730000Y-109000000D03*
X154730000Y-108000000D03*
X154730000Y-107500000D03*
X154730000Y-106500000D03*
X154730000Y-105200000D03*
X154730000Y-104400000D03*
X154730000Y-104700000D03*
X154730000Y-105500000D03*
X154730000Y-106000000D03*
X154730000Y-107000000D03*
X154730000Y-108500000D03*
X154730000Y-109500000D03*
X154730000Y-110000000D03*
X154730000Y-110800000D03*
D24*
X155295000Y-103430000D03*
X155295000Y-112070000D03*
D25*
X159475000Y-103430000D03*
X159475000Y-112070000D03*
D26*
X132025000Y-100850000D03*
X130475000Y-100850000D03*
D17*
X127230504Y-101349504D03*
X128880504Y-101349504D03*
D27*
X124810000Y-88750000D03*
X122010000Y-88750000D03*
D28*
X146000000Y-107200000D03*
X145600000Y-107200000D03*
D29*
X144925000Y-107400000D03*
X144925000Y-107800000D03*
X144925000Y-108200000D03*
D28*
X145600000Y-108400000D03*
X146000000Y-108400000D03*
D29*
X146675000Y-108200000D03*
X146675000Y-107800000D03*
X146675000Y-107400000D03*
D16*
X123485000Y-86750000D03*
X121835000Y-86750000D03*
D26*
X127475000Y-105200000D03*
X125925000Y-105200000D03*
D17*
X121835000Y-105250000D03*
X123485000Y-105250000D03*
D30*
X126562500Y-77125000D03*
X126562500Y-78675000D03*
D17*
X150875000Y-74400000D03*
X152525000Y-74400000D03*
X158575000Y-95600000D03*
X160225000Y-95600000D03*
D18*
X126450000Y-119137500D03*
X128350000Y-119137500D03*
X127400000Y-117262500D03*
D31*
X123200000Y-98700000D03*
X123200000Y-93300000D03*
D22*
X118765000Y-87140000D03*
X118765000Y-81360000D03*
D23*
X119830000Y-80900000D03*
X119830000Y-81700000D03*
X119830000Y-83000000D03*
X119830000Y-84000000D03*
X119830000Y-84500000D03*
X119830000Y-85500000D03*
X119830000Y-86800000D03*
X119830000Y-87600000D03*
X119830000Y-87300000D03*
X119830000Y-86500000D03*
X119830000Y-86000000D03*
X119830000Y-85000000D03*
X119830000Y-83500000D03*
X119830000Y-82500000D03*
X119830000Y-82000000D03*
X119830000Y-81200000D03*
D24*
X119265000Y-88570000D03*
D25*
X115085000Y-79930000D03*
X115085000Y-88570000D03*
D24*
X119265000Y-79930000D03*
D32*
X115987500Y-92137500D03*
X114412500Y-92137500D03*
D17*
X117557500Y-96000000D03*
X119207500Y-96000000D03*
X142925000Y-99400000D03*
X144575000Y-99400000D03*
D33*
X151540000Y-118715000D03*
X149000000Y-118715000D03*
X150270000Y-118715000D03*
X146460000Y-118715000D03*
X147730000Y-118715000D03*
D34*
X150905000Y-119870000D03*
X149635000Y-119870000D03*
X148365000Y-119870000D03*
X147095000Y-119870000D03*
D27*
X124810000Y-103250000D03*
X122010000Y-103250000D03*
D17*
X121835000Y-81750000D03*
X123485000Y-81750000D03*
D15*
X137600000Y-98375000D03*
X137600000Y-96825000D03*
D35*
X143350000Y-92937500D03*
X144300000Y-92937500D03*
X145250000Y-92937500D03*
X145250000Y-90662500D03*
X144300000Y-90662500D03*
X143350000Y-90662500D03*
D14*
X116210000Y-117000000D03*
D13*
X116210000Y-114600000D03*
X118610000Y-117000000D03*
X114512944Y-118697056D03*
X116210000Y-119400000D03*
X117907056Y-115302944D03*
X113810000Y-117000000D03*
X114512944Y-115302944D03*
X117907056Y-118697056D03*
X113810000Y-75000000D03*
X117907056Y-76697056D03*
X114512944Y-76697056D03*
X117907056Y-73302944D03*
X118610000Y-75000000D03*
X114512944Y-73302944D03*
X116210000Y-72600000D03*
X116210000Y-77400000D03*
D14*
X116210000Y-75000000D03*
D36*
X131332500Y-78950000D03*
X142762500Y-78950000D03*
D37*
X141492500Y-85300000D03*
D38*
X140222500Y-87840000D03*
X138952500Y-85300000D03*
X137682500Y-87840000D03*
X136412500Y-85300000D03*
X135142500Y-87840000D03*
X133872500Y-85300000D03*
X132602500Y-87840000D03*
D39*
X152537500Y-108700000D03*
X152537500Y-107750000D03*
X152537500Y-106800000D03*
X150262500Y-106800000D03*
X150262500Y-107750000D03*
X150262500Y-108700000D03*
D15*
X132000000Y-99375000D03*
X132000000Y-97825000D03*
D19*
X146625000Y-98400000D03*
X148175000Y-98400000D03*
D40*
X122022500Y-83300000D03*
X122022500Y-84250000D03*
X122022500Y-85200000D03*
X124297500Y-85200000D03*
X124297500Y-84250000D03*
X124297500Y-83300000D03*
D41*
X149000000Y-89500000D03*
D42*
X149000000Y-87000000D03*
X149000000Y-85000000D03*
X149000000Y-82500000D03*
D43*
X151710000Y-79430000D03*
X151710000Y-92570000D03*
D19*
X142975000Y-102400000D03*
X144525000Y-102400000D03*
D44*
X123200000Y-117475000D03*
X123200000Y-119125000D03*
D30*
X134900000Y-108225000D03*
X134900000Y-109775000D03*
D32*
X160167500Y-94000000D03*
X158592500Y-94000000D03*
D27*
X130500000Y-119600000D03*
X130500000Y-116800000D03*
D45*
X121600000Y-117512500D03*
X121600000Y-119087500D03*
D16*
X123485000Y-110250000D03*
X121835000Y-110250000D03*
D44*
X143400000Y-115275000D03*
X143400000Y-116925000D03*
D46*
X129362500Y-94450000D03*
X129362500Y-96350000D03*
X131237500Y-95400000D03*
D47*
X134900000Y-106737500D03*
X135300000Y-106737500D03*
X135700000Y-106737500D03*
X136100000Y-106737500D03*
X136500000Y-106737500D03*
X136900000Y-106737500D03*
X137300000Y-106737500D03*
X137700000Y-106737500D03*
X138100000Y-106737500D03*
X138500000Y-106737500D03*
X138900000Y-106737500D03*
X139300000Y-106737500D03*
X139700000Y-106737500D03*
X140100000Y-106737500D03*
D48*
X140937500Y-105900000D03*
X140937500Y-105500000D03*
X140937500Y-105100000D03*
X140937500Y-104700000D03*
X140937500Y-104300000D03*
X140937500Y-103900000D03*
X140937500Y-103500000D03*
X140937500Y-103100000D03*
X140937500Y-102700000D03*
X140937500Y-102300000D03*
X140937500Y-101900000D03*
X140937500Y-101500000D03*
X140937500Y-101100000D03*
X140937500Y-100700000D03*
D47*
X140100000Y-99862500D03*
X139700000Y-99862500D03*
X139300000Y-99862500D03*
X138900000Y-99862500D03*
X138500000Y-99862500D03*
X138100000Y-99862500D03*
X137700000Y-99862500D03*
X137300000Y-99862500D03*
X136900000Y-99862500D03*
X136500000Y-99862500D03*
X136100000Y-99862500D03*
X135700000Y-99862500D03*
X135300000Y-99862500D03*
X134900000Y-99862500D03*
D48*
X134062500Y-100700000D03*
X134062500Y-101100000D03*
X134062500Y-101500000D03*
X134062500Y-101900000D03*
X134062500Y-102300000D03*
X134062500Y-102700000D03*
X134062500Y-103100000D03*
X134062500Y-103500000D03*
X134062500Y-103900000D03*
X134062500Y-104300000D03*
X134062500Y-104700000D03*
X134062500Y-105100000D03*
X134062500Y-105500000D03*
X134062500Y-105900000D03*
D49*
X137500000Y-103300000D03*
D18*
X139650000Y-92637500D03*
X141550000Y-92637500D03*
X140600000Y-90762500D03*
D32*
X115987500Y-96000000D03*
X114412500Y-96000000D03*
D30*
X124962500Y-77125000D03*
X124962500Y-78675000D03*
D15*
X130500000Y-99375000D03*
X130500000Y-97825000D03*
D13*
X159907056Y-115302944D03*
D14*
X158210000Y-117000000D03*
D13*
X160610000Y-117000000D03*
X156512944Y-118697056D03*
X159907056Y-118697056D03*
X156512944Y-115302944D03*
X158210000Y-114600000D03*
X158210000Y-119400000D03*
X155810000Y-117000000D03*
D26*
X131825000Y-104800000D03*
X130275000Y-104800000D03*
D50*
X143400000Y-119987500D03*
X143400000Y-118412500D03*
D17*
X117557500Y-99862500D03*
X119207500Y-99862500D03*
D19*
X145225000Y-110600000D03*
X146775000Y-110600000D03*
D18*
X147250000Y-75337500D03*
X149150000Y-75337500D03*
X148200000Y-73462500D03*
D40*
X122022500Y-106800000D03*
X122022500Y-107750000D03*
X122022500Y-108700000D03*
X124297500Y-108700000D03*
X124297500Y-107750000D03*
X124297500Y-106800000D03*
D51*
X148250000Y-102500000D03*
X148250000Y-100300000D03*
X146550000Y-100300000D03*
X146550000Y-102500000D03*
D18*
X129150000Y-92637500D03*
X131050000Y-92637500D03*
X130100000Y-90762500D03*
D44*
X124800000Y-117475000D03*
X124800000Y-119125000D03*
D19*
X150925000Y-72900000D03*
X152475000Y-72900000D03*
D52*
X127495000Y-112175000D03*
X128765000Y-112175000D03*
X130035000Y-112175000D03*
X131305000Y-112175000D03*
X131305000Y-107225000D03*
X130035000Y-107225000D03*
X128765000Y-107225000D03*
X127495000Y-107225000D03*
D26*
X131825000Y-103300000D03*
X130275000Y-103300000D03*
D18*
X136150000Y-92637500D03*
X138050000Y-92637500D03*
X137100000Y-90762500D03*
D19*
X146625000Y-104400000D03*
X148175000Y-104400000D03*
D30*
X138350000Y-108225000D03*
X138350000Y-109775000D03*
D32*
X160167500Y-101600000D03*
X158592500Y-101600000D03*
D22*
X118765000Y-104860000D03*
X118765000Y-110640000D03*
D23*
X119830000Y-104400000D03*
X119830000Y-105200000D03*
X119830000Y-106500000D03*
X119830000Y-107500000D03*
X119830000Y-108000000D03*
X119830000Y-109000000D03*
X119830000Y-110300000D03*
X119830000Y-111100000D03*
X119830000Y-110800000D03*
X119830000Y-110000000D03*
X119830000Y-109500000D03*
X119830000Y-108500000D03*
X119830000Y-107000000D03*
X119830000Y-106000000D03*
X119830000Y-105500000D03*
X119830000Y-104700000D03*
D25*
X115085000Y-103430000D03*
X115085000Y-112070000D03*
D24*
X119265000Y-112070000D03*
X119265000Y-103430000D03*
D53*
X141337500Y-96350000D03*
X141337500Y-94450000D03*
X139462500Y-95400000D03*
D16*
X152525000Y-75900000D03*
X150875000Y-75900000D03*
D40*
X124125000Y-73650000D03*
X124125000Y-74600000D03*
X124125000Y-75550000D03*
X126400000Y-75550000D03*
X126400000Y-73650000D03*
D17*
X127230504Y-102849504D03*
X128880504Y-102849504D03*
D16*
X144575000Y-103850000D03*
X142925000Y-103850000D03*
D32*
X115987500Y-99862500D03*
X114412500Y-99862500D03*
M02*
