%TF.GenerationSoftware,KiCad,Pcbnew,(6.0.9)*%
%TF.CreationDate,2022-11-14T10:49:34+01:00*%
%TF.ProjectId,latte,6c617474-652e-46b6-9963-61645f706362,rev?*%
%TF.SameCoordinates,Original*%
%TF.FileFunction,Soldermask,Top*%
%TF.FilePolarity,Negative*%
%FSLAX46Y46*%
G04 Gerber Fmt 4.6, Leading zero omitted, Abs format (unit mm)*
G04 Created by KiCad (PCBNEW (6.0.9)) date 2022-11-14 10:49:34*
%MOMM*%
%LPD*%
G01*
G04 APERTURE LIST*
G04 Aperture macros list*
%AMRoundRect*
0 Rectangle with rounded corners*
0 $1 Rounding radius*
0 $2 $3 $4 $5 $6 $7 $8 $9 X,Y pos of 4 corners*
0 Add a 4 corners polygon primitive as box body*
4,1,4,$2,$3,$4,$5,$6,$7,$8,$9,$2,$3,0*
0 Add four circle primitives for the rounded corners*
1,1,$1+$1,$2,$3*
1,1,$1+$1,$4,$5*
1,1,$1+$1,$6,$7*
1,1,$1+$1,$8,$9*
0 Add four rect primitives between the rounded corners*
20,1,$1+$1,$2,$3,$4,$5,0*
20,1,$1+$1,$4,$5,$6,$7,0*
20,1,$1+$1,$6,$7,$8,$9,0*
20,1,$1+$1,$8,$9,$2,$3,0*%
G04 Aperture macros list end*
%ADD10C,0.800000*%
%ADD11C,6.400000*%
%ADD12RoundRect,0.225000X0.250000X-0.225000X0.250000X0.225000X-0.250000X0.225000X-0.250000X-0.225000X0*%
%ADD13RoundRect,0.200000X0.200000X0.275000X-0.200000X0.275000X-0.200000X-0.275000X0.200000X-0.275000X0*%
%ADD14RoundRect,0.200000X-0.200000X-0.275000X0.200000X-0.275000X0.200000X0.275000X-0.200000X0.275000X0*%
%ADD15RoundRect,0.150000X0.150000X-0.587500X0.150000X0.587500X-0.150000X0.587500X-0.150000X-0.587500X0*%
%ADD16RoundRect,0.225000X-0.225000X-0.250000X0.225000X-0.250000X0.225000X0.250000X-0.225000X0.250000X0*%
%ADD17R,2.300000X2.300000*%
%ADD18C,2.300000*%
%ADD19C,0.650000*%
%ADD20R,1.150000X0.300000*%
%ADD21O,2.100000X1.000000*%
%ADD22O,1.600000X1.000000*%
%ADD23RoundRect,0.225000X0.225000X0.250000X-0.225000X0.250000X-0.225000X-0.250000X0.225000X-0.250000X0*%
%ADD24R,1.100000X1.100000*%
%ADD25RoundRect,0.050000X-0.050000X0.350000X-0.050000X-0.350000X0.050000X-0.350000X0.050000X0.350000X0*%
%ADD26RoundRect,0.050000X-0.325000X0.050000X-0.325000X-0.050000X0.325000X-0.050000X0.325000X0.050000X0*%
%ADD27RoundRect,0.225000X-0.250000X0.225000X-0.250000X-0.225000X0.250000X-0.225000X0.250000X0.225000X0*%
%ADD28R,1.600000X2.000000*%
%ADD29RoundRect,0.218750X0.218750X0.256250X-0.218750X0.256250X-0.218750X-0.256250X0.218750X-0.256250X0*%
%ADD30C,0.700000*%
%ADD31O,0.800000X1.500000*%
%ADD32RoundRect,0.150000X0.150000X-0.512500X0.150000X0.512500X-0.150000X0.512500X-0.150000X-0.512500X0*%
%ADD33C,3.200000*%
%ADD34R,1.500000X1.500000*%
%ADD35C,1.500000*%
%ADD36RoundRect,0.150000X0.512500X0.150000X-0.512500X0.150000X-0.512500X-0.150000X0.512500X-0.150000X0*%
%ADD37RoundRect,0.150000X-0.512500X-0.150000X0.512500X-0.150000X0.512500X0.150000X-0.512500X0.150000X0*%
%ADD38R,1.500000X1.600000*%
%ADD39C,1.600000*%
%ADD40C,3.000000*%
%ADD41RoundRect,0.200000X-0.275000X0.200000X-0.275000X-0.200000X0.275000X-0.200000X0.275000X0.200000X0*%
%ADD42RoundRect,0.218750X-0.256250X0.218750X-0.256250X-0.218750X0.256250X-0.218750X0.256250X0.218750X0*%
%ADD43RoundRect,0.150000X-0.587500X-0.150000X0.587500X-0.150000X0.587500X0.150000X-0.587500X0.150000X0*%
%ADD44RoundRect,0.050000X0.050000X-0.387500X0.050000X0.387500X-0.050000X0.387500X-0.050000X-0.387500X0*%
%ADD45RoundRect,0.050000X0.387500X-0.050000X0.387500X0.050000X-0.387500X0.050000X-0.387500X-0.050000X0*%
%ADD46R,3.200000X3.200000*%
%ADD47RoundRect,0.218750X0.256250X-0.218750X0.256250X0.218750X-0.256250X0.218750X-0.256250X-0.218750X0*%
%ADD48R,1.200000X1.400000*%
%ADD49RoundRect,0.150000X0.150000X-0.825000X0.150000X0.825000X-0.150000X0.825000X-0.150000X-0.825000X0*%
%ADD50RoundRect,0.150000X0.587500X0.150000X-0.587500X0.150000X-0.587500X-0.150000X0.587500X-0.150000X0*%
G04 APERTURE END LIST*
D10*
X155810000Y-75000000D03*
X160610000Y-75000000D03*
X156512944Y-76697056D03*
X156512944Y-73302944D03*
X158210000Y-77400000D03*
X159907056Y-76697056D03*
D11*
X158210000Y-75000000D03*
D10*
X158210000Y-72600000D03*
X159907056Y-73302944D03*
D12*
X134850000Y-98375000D03*
X134850000Y-96825000D03*
D13*
X152725000Y-110250000D03*
X151075000Y-110250000D03*
X160225000Y-100000000D03*
X158575000Y-100000000D03*
D14*
X121875000Y-91100000D03*
X123525000Y-91100000D03*
D15*
X132650000Y-92637500D03*
X134550000Y-92637500D03*
X133600000Y-90762500D03*
D16*
X142975000Y-100900000D03*
X144525000Y-100900000D03*
D14*
X151075000Y-105250000D03*
X152725000Y-105250000D03*
X117557500Y-92137500D03*
X119207500Y-92137500D03*
D12*
X121362500Y-75375000D03*
X121362500Y-73825000D03*
D17*
X139750000Y-116950000D03*
D18*
X134670000Y-116950000D03*
D19*
X155795000Y-110640000D03*
X155795000Y-104860000D03*
D20*
X154730000Y-111100000D03*
X154730000Y-110300000D03*
X154730000Y-109000000D03*
X154730000Y-108000000D03*
X154730000Y-107500000D03*
X154730000Y-106500000D03*
X154730000Y-105200000D03*
X154730000Y-104400000D03*
X154730000Y-104700000D03*
X154730000Y-105500000D03*
X154730000Y-106000000D03*
X154730000Y-107000000D03*
X154730000Y-108500000D03*
X154730000Y-109500000D03*
X154730000Y-110000000D03*
X154730000Y-110800000D03*
D21*
X155295000Y-103430000D03*
X155295000Y-112070000D03*
D22*
X159475000Y-103430000D03*
X159475000Y-112070000D03*
D23*
X132025000Y-100850000D03*
X130475000Y-100850000D03*
D14*
X127230504Y-101349504D03*
X128880504Y-101349504D03*
D24*
X124810000Y-88750000D03*
X122010000Y-88750000D03*
D25*
X146000000Y-107200000D03*
X145600000Y-107200000D03*
D26*
X144925000Y-107400000D03*
X144925000Y-107800000D03*
X144925000Y-108200000D03*
D25*
X145600000Y-108400000D03*
X146000000Y-108400000D03*
D26*
X146675000Y-108200000D03*
X146675000Y-107800000D03*
X146675000Y-107400000D03*
D13*
X123485000Y-86750000D03*
X121835000Y-86750000D03*
D23*
X127475000Y-105200000D03*
X125925000Y-105200000D03*
D14*
X121835000Y-105250000D03*
X123485000Y-105250000D03*
D27*
X126562500Y-77125000D03*
X126562500Y-78675000D03*
D14*
X150875000Y-74400000D03*
X152525000Y-74400000D03*
X158575000Y-95600000D03*
X160225000Y-95600000D03*
D15*
X126450000Y-119137500D03*
X128350000Y-119137500D03*
X127400000Y-117262500D03*
D28*
X123200000Y-98700000D03*
X123200000Y-93300000D03*
D19*
X118765000Y-87140000D03*
X118765000Y-81360000D03*
D20*
X119830000Y-80900000D03*
X119830000Y-81700000D03*
X119830000Y-83000000D03*
X119830000Y-84000000D03*
X119830000Y-84500000D03*
X119830000Y-85500000D03*
X119830000Y-86800000D03*
X119830000Y-87600000D03*
X119830000Y-87300000D03*
X119830000Y-86500000D03*
X119830000Y-86000000D03*
X119830000Y-85000000D03*
X119830000Y-83500000D03*
X119830000Y-82500000D03*
X119830000Y-82000000D03*
X119830000Y-81200000D03*
D21*
X119265000Y-88570000D03*
D22*
X115085000Y-79930000D03*
X115085000Y-88570000D03*
D21*
X119265000Y-79930000D03*
D29*
X115987500Y-92137500D03*
X114412500Y-92137500D03*
D14*
X117557500Y-96000000D03*
X119207500Y-96000000D03*
X142925000Y-99400000D03*
X144575000Y-99400000D03*
D30*
X151540000Y-118715000D03*
X149000000Y-118715000D03*
X150270000Y-118715000D03*
X146460000Y-118715000D03*
X147730000Y-118715000D03*
D31*
X150905000Y-119870000D03*
X149635000Y-119870000D03*
X148365000Y-119870000D03*
X147095000Y-119870000D03*
D24*
X124810000Y-103250000D03*
X122010000Y-103250000D03*
D14*
X121835000Y-81750000D03*
X123485000Y-81750000D03*
D12*
X137600000Y-98375000D03*
X137600000Y-96825000D03*
D32*
X143350000Y-92937500D03*
X144300000Y-92937500D03*
X145250000Y-92937500D03*
X145250000Y-90662500D03*
X144300000Y-90662500D03*
X143350000Y-90662500D03*
D11*
X116210000Y-117000000D03*
D10*
X116210000Y-114600000D03*
X118610000Y-117000000D03*
X114512944Y-118697056D03*
X116210000Y-119400000D03*
X117907056Y-115302944D03*
X113810000Y-117000000D03*
X114512944Y-115302944D03*
X117907056Y-118697056D03*
X113810000Y-75000000D03*
X117907056Y-76697056D03*
X114512944Y-76697056D03*
X117907056Y-73302944D03*
X118610000Y-75000000D03*
X114512944Y-73302944D03*
X116210000Y-72600000D03*
X116210000Y-77400000D03*
D11*
X116210000Y-75000000D03*
D33*
X131332500Y-78950000D03*
X142762500Y-78950000D03*
D34*
X141492500Y-85300000D03*
D35*
X140222500Y-87840000D03*
X138952500Y-85300000D03*
X137682500Y-87840000D03*
X136412500Y-85300000D03*
X135142500Y-87840000D03*
X133872500Y-85300000D03*
X132602500Y-87840000D03*
D36*
X152537500Y-108700000D03*
X152537500Y-107750000D03*
X152537500Y-106800000D03*
X150262500Y-106800000D03*
X150262500Y-107750000D03*
X150262500Y-108700000D03*
D12*
X132000000Y-99375000D03*
X132000000Y-97825000D03*
D16*
X146625000Y-98400000D03*
X148175000Y-98400000D03*
D37*
X122022500Y-83300000D03*
X122022500Y-84250000D03*
X122022500Y-85200000D03*
X124297500Y-85200000D03*
X124297500Y-84250000D03*
X124297500Y-83300000D03*
D38*
X149000000Y-89500000D03*
D39*
X149000000Y-87000000D03*
X149000000Y-85000000D03*
X149000000Y-82500000D03*
D40*
X151710000Y-79430000D03*
X151710000Y-92570000D03*
D16*
X142975000Y-102400000D03*
X144525000Y-102400000D03*
D41*
X123200000Y-117475000D03*
X123200000Y-119125000D03*
D27*
X134900000Y-108225000D03*
X134900000Y-109775000D03*
D29*
X160167500Y-94000000D03*
X158592500Y-94000000D03*
D24*
X130500000Y-119600000D03*
X130500000Y-116800000D03*
D42*
X121600000Y-117512500D03*
X121600000Y-119087500D03*
D13*
X123485000Y-110250000D03*
X121835000Y-110250000D03*
D41*
X143400000Y-115275000D03*
X143400000Y-116925000D03*
D43*
X129362500Y-94450000D03*
X129362500Y-96350000D03*
X131237500Y-95400000D03*
D44*
X134900000Y-106737500D03*
X135300000Y-106737500D03*
X135700000Y-106737500D03*
X136100000Y-106737500D03*
X136500000Y-106737500D03*
X136900000Y-106737500D03*
X137300000Y-106737500D03*
X137700000Y-106737500D03*
X138100000Y-106737500D03*
X138500000Y-106737500D03*
X138900000Y-106737500D03*
X139300000Y-106737500D03*
X139700000Y-106737500D03*
X140100000Y-106737500D03*
D45*
X140937500Y-105900000D03*
X140937500Y-105500000D03*
X140937500Y-105100000D03*
X140937500Y-104700000D03*
X140937500Y-104300000D03*
X140937500Y-103900000D03*
X140937500Y-103500000D03*
X140937500Y-103100000D03*
X140937500Y-102700000D03*
X140937500Y-102300000D03*
X140937500Y-101900000D03*
X140937500Y-101500000D03*
X140937500Y-101100000D03*
X140937500Y-100700000D03*
D44*
X140100000Y-99862500D03*
X139700000Y-99862500D03*
X139300000Y-99862500D03*
X138900000Y-99862500D03*
X138500000Y-99862500D03*
X138100000Y-99862500D03*
X137700000Y-99862500D03*
X137300000Y-99862500D03*
X136900000Y-99862500D03*
X136500000Y-99862500D03*
X136100000Y-99862500D03*
X135700000Y-99862500D03*
X135300000Y-99862500D03*
X134900000Y-99862500D03*
D45*
X134062500Y-100700000D03*
X134062500Y-101100000D03*
X134062500Y-101500000D03*
X134062500Y-101900000D03*
X134062500Y-102300000D03*
X134062500Y-102700000D03*
X134062500Y-103100000D03*
X134062500Y-103500000D03*
X134062500Y-103900000D03*
X134062500Y-104300000D03*
X134062500Y-104700000D03*
X134062500Y-105100000D03*
X134062500Y-105500000D03*
X134062500Y-105900000D03*
D46*
X137500000Y-103300000D03*
D15*
X139650000Y-92637500D03*
X141550000Y-92637500D03*
X140600000Y-90762500D03*
D29*
X115987500Y-96000000D03*
X114412500Y-96000000D03*
D27*
X124962500Y-77125000D03*
X124962500Y-78675000D03*
D12*
X130500000Y-99375000D03*
X130500000Y-97825000D03*
D10*
X159907056Y-115302944D03*
D11*
X158210000Y-117000000D03*
D10*
X160610000Y-117000000D03*
X156512944Y-118697056D03*
X159907056Y-118697056D03*
X156512944Y-115302944D03*
X158210000Y-114600000D03*
X158210000Y-119400000D03*
X155810000Y-117000000D03*
D23*
X131825000Y-104800000D03*
X130275000Y-104800000D03*
D47*
X143400000Y-119987500D03*
X143400000Y-118412500D03*
D14*
X117557500Y-99862500D03*
X119207500Y-99862500D03*
D16*
X145225000Y-110600000D03*
X146775000Y-110600000D03*
D15*
X147250000Y-75337500D03*
X149150000Y-75337500D03*
X148200000Y-73462500D03*
D37*
X122022500Y-106800000D03*
X122022500Y-107750000D03*
X122022500Y-108700000D03*
X124297500Y-108700000D03*
X124297500Y-107750000D03*
X124297500Y-106800000D03*
D48*
X148250000Y-102500000D03*
X148250000Y-100300000D03*
X146550000Y-100300000D03*
X146550000Y-102500000D03*
D15*
X129150000Y-92637500D03*
X131050000Y-92637500D03*
X130100000Y-90762500D03*
D41*
X124800000Y-117475000D03*
X124800000Y-119125000D03*
D16*
X150925000Y-72900000D03*
X152475000Y-72900000D03*
D49*
X127495000Y-112175000D03*
X128765000Y-112175000D03*
X130035000Y-112175000D03*
X131305000Y-112175000D03*
X131305000Y-107225000D03*
X130035000Y-107225000D03*
X128765000Y-107225000D03*
X127495000Y-107225000D03*
D23*
X131825000Y-103300000D03*
X130275000Y-103300000D03*
D15*
X136150000Y-92637500D03*
X138050000Y-92637500D03*
X137100000Y-90762500D03*
D16*
X146625000Y-104400000D03*
X148175000Y-104400000D03*
D27*
X138350000Y-108225000D03*
X138350000Y-109775000D03*
D29*
X160167500Y-101600000D03*
X158592500Y-101600000D03*
D19*
X118765000Y-104860000D03*
X118765000Y-110640000D03*
D20*
X119830000Y-104400000D03*
X119830000Y-105200000D03*
X119830000Y-106500000D03*
X119830000Y-107500000D03*
X119830000Y-108000000D03*
X119830000Y-109000000D03*
X119830000Y-110300000D03*
X119830000Y-111100000D03*
X119830000Y-110800000D03*
X119830000Y-110000000D03*
X119830000Y-109500000D03*
X119830000Y-108500000D03*
X119830000Y-107000000D03*
X119830000Y-106000000D03*
X119830000Y-105500000D03*
X119830000Y-104700000D03*
D22*
X115085000Y-103430000D03*
X115085000Y-112070000D03*
D21*
X119265000Y-112070000D03*
X119265000Y-103430000D03*
D50*
X141337500Y-96350000D03*
X141337500Y-94450000D03*
X139462500Y-95400000D03*
D13*
X152525000Y-75900000D03*
X150875000Y-75900000D03*
D37*
X124125000Y-73650000D03*
X124125000Y-74600000D03*
X124125000Y-75550000D03*
X126400000Y-75550000D03*
X126400000Y-73650000D03*
D14*
X127230504Y-102849504D03*
X128880504Y-102849504D03*
D13*
X144575000Y-103850000D03*
X142925000Y-103850000D03*
D29*
X115987500Y-99862500D03*
X114412500Y-99862500D03*
M02*
