M48
; DRILL file {KiCad (6.0.9)} date Thu 24 Nov 2022 10:06:11 PM CET
; FORMAT={-:-/ absolute / metric / decimal}
; #@! TF.CreationDate,2022-11-24T22:06:11+01:00
; #@! TF.GenerationSoftware,Kicad,Pcbnew,(6.0.9)
; #@! TF.FileFunction,Plated,1,4,PTH
FMAT,2
METRIC
; #@! TA.AperFunction,Plated,PTH,ViaDrill
T1C0.200
; #@! TA.AperFunction,Plated,PTH,ComponentDrill
T2C0.500
; #@! TA.AperFunction,Plated,PTH,ComponentDrill
T3C0.600
; #@! TA.AperFunction,Plated,PTH,ComponentDrill
T4C0.760
; #@! TA.AperFunction,Plated,PTH,ComponentDrill
T5C0.950
; #@! TA.AperFunction,Plated,PTH,ComponentDrill
T6C1.520
; #@! TA.AperFunction,Plated,PTH,ComponentDrill
T7C2.300
; #@! TA.AperFunction,Plated,PTH,ComponentDrill
T8C3.200
%
G90
G05
T1
X113.2Y-93.8
X113.3Y-97.5
X114.0Y-80.881
X114.0Y-83.881
X114.0Y-86.881
X114.0Y-89.881
X114.0Y-101.881
X114.0Y-104.881
X114.0Y-107.881
X114.0Y-110.881
X114.0Y-113.881
X114.4Y-93.1
X114.45Y-94.15
X115.0Y-98.4
X117.0Y-80.881
X117.0Y-83.881
X117.0Y-86.881
X117.0Y-89.881
X117.0Y-98.881
X117.0Y-101.881
X117.0Y-104.881
X117.0Y-107.881
X117.0Y-111.4
X117.0Y-112.1
X117.05Y-112.85
X117.6Y-113.4
X118.8Y-97.7
X120.0Y-71.881
X120.0Y-77.881
X120.0Y-89.881
X120.0Y-98.881
X120.0Y-101.881
X120.0Y-116.881
X120.0Y-119.881
X120.3Y-114.6
X120.462Y-75.4
X120.6Y-92.3
X120.8Y-95.5
X120.897Y-110.242
X120.897Y-110.903
X120.897Y-111.497
X120.911Y-80.489
X120.911Y-81.089
X120.911Y-81.744
X120.918Y-86.763
X120.918Y-87.716
X120.985Y-104.215
X120.985Y-105.015
X121.0Y-103.4
X121.019Y-88.581
X121.362Y-76.2
X121.7Y-111.9
X121.9Y-100.5
X122.3Y-79.2
X122.412Y-73.65
X122.412Y-74.55
X122.412Y-75.35
X122.964Y-84.244
X123.0Y-71.881
X123.0Y-77.881
X123.0Y-101.881
X123.0Y-113.881
X123.05Y-107.75
X123.162Y-74.6
X123.198Y-85.282
X123.2Y-83.2
X123.2Y-95.0
X123.2Y-106.8
X123.2Y-108.8
X124.0Y-117.5
X124.35Y-81.75
X124.35Y-86.75
X124.35Y-110.25
X124.4Y-100.6
X124.4Y-101.2
X124.4Y-101.8
X124.5Y-111.9
X124.6Y-95.6
X124.8Y-114.9
X124.81Y-89.59
X124.81Y-90.19
X124.81Y-90.79
X125.127Y-74.619
X125.25Y-107.75
X125.35Y-84.25
X125.95Y-104.45
X125.95Y-106.0
X126.0Y-71.881
X126.0Y-80.881
X126.0Y-87.5
X126.0Y-89.881
X126.3Y-92.3
X126.3Y-116.1
X126.7Y-100.2
X127.1Y-104.0
X127.3Y-98.4
X127.475Y-106.025
X127.495Y-110.605
X127.665Y-119.141
X127.862Y-74.5
X127.862Y-75.3
X127.862Y-76.1
X128.2Y-96.7
X128.3Y-108.9
X128.354Y-117.975
X129.0Y-71.881
X129.0Y-74.881
X129.0Y-77.881
X129.0Y-80.881
X129.0Y-83.881
X129.0Y-86.881
X129.0Y-89.881
X129.0Y-98.881
X129.064Y-119.154
X129.129Y-91.459
X129.347Y-95.151
X129.55Y-104.8
X129.6Y-103.65
X129.7Y-97.85
X129.75Y-100.85
X129.8Y-110.3
X129.832Y-92.622
X130.28Y-104.055
X130.451Y-94.424
X130.5Y-97.1
X131.05Y-91.65
X131.1Y-90.475
X131.2Y-108.8
X131.25Y-97.85
X131.275Y-99.375
X131.9Y-110.9
X132.0Y-71.881
X132.0Y-74.881
X132.0Y-97.1
X132.5Y-90.8
X132.5Y-112.2
X132.7Y-91.65
X132.775Y-102.85
X132.8Y-97.8
X133.0Y-96.3
X133.1Y-100.1
X133.322Y-92.622
X133.6Y-94.2
X134.05Y-96.85
X134.1Y-99.9
X134.142Y-109.767
X134.2Y-111.5
X134.55Y-91.55
X134.8Y-115.0
X134.85Y-96.05
X134.9Y-99.1
X134.9Y-107.55
X134.919Y-110.553
X135.0Y-71.881
X135.0Y-74.881
X135.0Y-77.881
X135.0Y-80.881
X135.15Y-105.8
X135.2Y-103.9
X135.2Y-104.9
X135.6Y-118.6
X135.65Y-96.85
X135.7Y-109.75
X135.9Y-97.9
X135.9Y-108.0
X135.912Y-108.75
X136.151Y-91.525
X136.33Y-109.311
X136.7Y-94.2
X136.7Y-110.0
X136.7Y-111.1
X136.8Y-96.8
X136.841Y-92.608
X137.0Y-95.1
X137.4Y-110.25
X137.6Y-96.05
X137.65Y-105.75
X137.9Y-90.7
X138.0Y-71.881
X138.0Y-74.881
X138.0Y-77.881
X138.0Y-80.881
X138.0Y-83.881
X138.0Y-116.881
X138.05Y-91.55
X138.375Y-98.375
X138.4Y-96.8
X138.4Y-110.55
X138.5Y-105.7
X138.5Y-107.55
X139.5Y-105.4
X139.6Y-103.5
X139.647Y-91.483
X139.7Y-96.3
X139.808Y-90.696
X139.9Y-104.3
X139.954Y-102.316
X140.056Y-101.624
X140.25Y-94.45
X140.303Y-92.622
X141.0Y-71.881
X141.0Y-74.881
X141.0Y-80.881
X141.0Y-83.881
X141.0Y-106.9
X141.0Y-110.881
X141.0Y-119.881
X141.2Y-99.6
X141.343Y-95.664
X141.55Y-91.55
X141.6Y-113.5
X141.64Y-107.628
X141.7Y-100.2
X142.1Y-98.8
X142.2Y-108.25
X142.262Y-103.086
X142.4Y-96.6
X143.15Y-105.25
X143.3Y-109.5
X143.4Y-91.8
X143.4Y-114.5
X143.6Y-98.2
X143.7Y-97.3
X143.7Y-113.4
X143.761Y-104.79
X143.8Y-99.4
X144.0Y-71.881
X144.0Y-74.881
X144.0Y-80.881
X144.0Y-83.881
X144.1Y-107.8
X144.3Y-93.9
X144.312Y-91.624
X144.5Y-110.6
X144.8Y-117.5
X144.9Y-109.0
X144.9Y-109.8
X144.9Y-120.2
X145.2Y-91.8
X145.445Y-100.88
X145.459Y-102.442
X145.6Y-98.4
X146.0Y-76.9
X146.4Y-75.3
X146.55Y-101.5
X146.783Y-111.468
X147.0Y-71.881
X147.0Y-80.881
X147.325Y-107.2
X147.331Y-108.406
X147.597Y-110.607
X147.725Y-107.8
X147.9Y-83.9
X147.9Y-114.7
X148.0Y-75.3
X148.012Y-108.412
X148.2Y-93.9
X148.3Y-109.9
X148.325Y-107.5
X149.0Y-106.2
X149.0Y-108.525
X149.2Y-98.4
X149.3Y-111.7
X149.371Y-100.297
X149.381Y-104.408
X149.4Y-102.6
X149.4Y-103.4
X149.4Y-105.4
X150.0Y-71.881
X150.0Y-74.881
X150.0Y-80.881
X150.0Y-83.881
X150.0Y-95.881
X150.0Y-113.881
X150.25Y-103.55
X150.35Y-110.25
X151.05Y-103.55
X151.4Y-106.8
X151.4Y-108.8
X151.5Y-102.6
X151.5Y-107.75
X151.5Y-116.3
X151.9Y-103.4
X151.904Y-105.938
X152.5Y-111.3
X152.9Y-97.6
X153.0Y-71.881
X153.0Y-83.881
X153.0Y-86.881
X153.0Y-89.881
X153.0Y-95.881
X153.0Y-98.881
X153.0Y-113.881
X153.0Y-120.2
X153.1Y-111.3
X153.5Y-75.9
X153.55Y-104.45
X153.6Y-110.4
X153.6Y-111.0
X153.705Y-105.105
X153.9Y-116.0
X153.9Y-118.4
X154.8Y-78.0
X155.2Y-120.1
X156.0Y-71.881
X156.0Y-80.881
X156.0Y-83.881
X156.0Y-86.881
X156.0Y-89.881
X156.0Y-92.881
X156.0Y-95.881
X156.0Y-98.881
X156.0Y-113.881
X156.3Y-106.1
X156.6Y-109.3
X157.5Y-101.6
X159.0Y-80.881
X159.0Y-83.881
X159.0Y-86.881
X159.0Y-89.881
X159.0Y-92.881
X159.0Y-104.881
X159.0Y-107.881
X159.0Y-110.881
T2
X113.81Y-75.0
X113.81Y-117.0
X114.513Y-73.303
X114.513Y-76.697
X114.513Y-115.303
X114.513Y-118.697
X116.21Y-72.6
X116.21Y-77.4
X116.21Y-114.6
X116.21Y-119.4
X117.907Y-73.303
X117.907Y-76.697
X117.907Y-115.303
X117.907Y-118.697
X118.61Y-75.0
X118.61Y-117.0
X155.81Y-75.0
X155.81Y-117.0
X156.513Y-73.303
X156.513Y-76.697
X156.513Y-115.303
X156.513Y-118.697
X158.21Y-72.6
X158.21Y-77.4
X158.21Y-114.6
X158.21Y-119.4
X159.907Y-73.303
X159.907Y-76.697
X159.907Y-115.303
X159.907Y-118.697
X160.61Y-75.0
X160.61Y-117.0
T4
X132.602Y-87.84
X133.873Y-85.3
X135.142Y-87.84
X136.412Y-85.3
X137.683Y-87.84
X138.952Y-85.3
X140.222Y-87.84
X141.493Y-85.3
T5
X149.0Y-82.5
X149.0Y-85.0
X149.0Y-87.0
X149.0Y-89.5
T6
X134.67Y-116.95
X139.75Y-116.95
T7
X151.71Y-79.43
X151.71Y-92.57
T8
X116.21Y-75.0
X116.21Y-117.0
X158.21Y-75.0
X158.21Y-117.0
T3
X115.385Y-79.93G85X114.785Y-79.93
G05
X115.385Y-88.57G85X114.785Y-88.57
G05
X115.385Y-103.43G85X114.785Y-103.43
G05
X115.385Y-112.07G85X114.785Y-112.07
G05
X119.815Y-79.93G85X118.715Y-79.93
G05
X119.815Y-88.57G85X118.715Y-88.57
G05
X119.815Y-103.43G85X118.715Y-103.43
G05
X119.815Y-112.07G85X118.715Y-112.07
G05
X154.745Y-103.43G85X155.845Y-103.43
G05
X154.745Y-112.07G85X155.845Y-112.07
G05
X159.175Y-103.43G85X159.775Y-103.43
G05
X159.175Y-112.07G85X159.775Y-112.07
G05
T0
M30
